<svg width="48" height="49" viewBox="0 0 48 49" fill="none" xmlns="http://www.w3.org/2000/svg">
<path d="M-0.000732422 14.4004C-0.000732422 6.66841 6.26728 0.400391 13.9993 0.400391H33.9993C41.7313 0.400391 47.9993 6.6684 47.9993 14.4004V34.4004C47.9993 42.1324 41.7313 48.4004 33.9993 48.4004H13.9993C6.26728 48.4004 -0.000732422 42.1324 -0.000732422 34.4004V14.4004Z" fill="#B978B2"/>
<path d="M21.9993 24.9004L19.9993 27.4004L21.9993 29.9004" stroke="white" stroke-width="1.5" stroke-linecap="round" stroke-linejoin="round"/>
<path d="M25.9993 24.9004L27.9993 27.4004L25.9993 29.9004" stroke="white" stroke-width="1.5" stroke-linecap="round" stroke-linejoin="round"/>
<path d="M25.9993 14.4004V18.4004C25.9993 18.9308 26.21 19.4395 26.5851 19.8146C26.9601 20.1897 27.4688 20.4004 27.9993 20.4004H31.9993" stroke="white" stroke-width="1.5" stroke-linecap="round" stroke-linejoin="round"/>
<path d="M26.9993 14.4004H17.9993C17.4688 14.4004 16.9601 14.6111 16.5851 14.9862C16.21 15.3612 15.9993 15.87 15.9993 16.4004V32.4004C15.9993 32.9308 16.21 33.4395 16.5851 33.8146C16.9601 34.1897 17.4688 34.4004 17.9993 34.4004H29.9993C30.5297 34.4004 31.0384 34.1897 31.4135 33.8146C31.7886 33.4395 31.9993 32.9308 31.9993 32.4004V19.4004L26.9993 14.4004Z" stroke="white" stroke-width="1.5" stroke-linecap="round" stroke-linejoin="round"/>
</svg>
