<svg width="943" height="1024" viewBox="0 0 943 1024" fill="none" xmlns="http://www.w3.org/2000/svg">
<g opacity="0.12">
<path fill-rule="evenodd" clip-rule="evenodd" d="M382.888 545.192C433.901 543.524 484.897 540.418 528.823 561.868C588.017 590.774 656.973 625.717 663.434 682.189C670.1 740.45 616.788 793.339 559.226 827.576C509.132 857.371 441.728 864.551 382.888 849.056C335.408 836.551 326.235 786.997 291.931 757.182C259.511 729.004 199.882 720.316 190.901 682.189C181.227 641.121 209.718 598.424 248.085 571.046C284.349 545.169 334.966 546.758 382.888 545.192Z" fill="#E46356"/>
<path fill-rule="evenodd" clip-rule="evenodd" d="M375.838 466.996C420.847 491.064 466.56 513.877 493.872 554.421C530.676 609.055 572.914 673.8 550.267 725.934C526.904 779.719 454.287 798.857 387.318 799.719C329.038 800.468 267.077 772.977 223.874 730.132C189.011 695.558 205.849 648.059 191.054 605.085C177.072 564.47 129.78 527.125 141.07 489.618C153.231 449.216 199.256 426.49 246.173 421.97C290.517 417.697 333.555 444.387 375.838 466.996Z" fill="#B978B2"/>
<path fill-rule="evenodd" clip-rule="evenodd" d="M684.72 531.248C703.99 578.511 724.604 625.257 719.733 673.898C713.171 739.445 704.334 816.243 653.616 841.903C601.291 868.377 533.186 836.737 481.098 794.637C435.768 758 405.638 697.278 399.747 636.718C394.994 587.849 438.283 562.046 454.338 519.527C469.511 479.342 456.963 420.404 489.602 398.748C524.759 375.421 574.69 387.32 613.683 413.799C650.539 438.827 666.617 486.849 684.72 531.248Z" fill="#70CBCF"/>
<path fill-rule="evenodd" clip-rule="evenodd" d="M488.889 457.192C539.902 455.524 590.897 452.418 634.823 473.868C694.017 502.774 762.973 537.717 769.434 594.189C776.101 652.45 722.788 705.339 665.226 739.576C615.133 769.371 547.728 776.551 488.889 761.056C441.408 748.551 432.235 698.997 397.931 669.182C365.511 641.004 305.882 632.316 296.901 594.189C287.227 553.121 315.718 510.424 354.085 483.046C390.349 457.169 440.967 458.758 488.889 457.192Z" fill="#E7E62A"/>
</g>
<g clip-path="url(#clip0_48_5525)">
<path d="M644.052 312.645H277.423C267.033 312.645 258.611 320.98 258.611 331.262V599.511C258.611 609.793 267.033 618.128 277.423 618.128H662.864V331.262C662.864 320.98 654.441 312.645 644.052 312.645Z" fill="white"/>
<path d="M662.864 618.61H277.423C266.785 618.61 258.13 610.042 258.13 599.511V331.263C258.13 320.731 266.785 312.164 277.423 312.164H644.052C654.69 312.164 663.345 320.731 663.345 331.263V618.129C663.345 618.394 663.13 618.61 662.864 618.61ZM277.423 313.126C267.315 313.126 259.092 321.262 259.092 331.263V599.511C259.092 609.512 267.315 617.648 277.423 617.648H662.383V331.263C662.383 321.262 654.159 313.126 644.052 313.126H277.423Z" fill="black"/>
<path d="M644.066 604.259H277.423C274.709 604.259 272.502 602.129 272.502 599.51V458.969C272.502 458.703 272.717 458.488 272.983 458.488C273.249 458.488 273.464 458.703 273.464 458.969V599.51C273.464 601.598 275.24 603.297 277.423 603.297H644.066C646.241 603.297 648.011 601.531 648.011 599.359V331.262C648.011 329.174 646.235 327.476 644.052 327.476H277.423C275.24 327.476 273.464 329.174 273.464 331.262V440.612C273.464 440.878 273.249 441.093 272.983 441.093C272.717 441.093 272.502 440.878 272.502 440.612V331.262C272.502 328.644 274.709 326.514 277.423 326.514H644.052C646.765 326.514 648.973 328.644 648.973 331.262V599.359C648.973 602.061 646.772 604.259 644.066 604.259Z" fill="black"/>
<path d="M183.364 647.635C167.491 647.635 154.623 634.9 154.623 619.191V617.725H662.864V619.191C662.864 634.9 649.996 647.635 634.123 647.635H291.792H183.364Z" fill="white"/>
<path d="M634.123 648.117H183.364C167.251 648.117 154.142 635.141 154.142 619.191V617.725C154.142 617.459 154.357 617.244 154.623 617.244H662.864C663.129 617.244 663.345 617.459 663.345 617.725V619.191C663.345 635.141 650.236 648.117 634.123 648.117ZM155.104 618.206V619.192C155.104 634.611 167.782 647.155 183.364 647.155H634.123C649.706 647.155 662.383 634.611 662.383 619.192V618.206H155.104Z" fill="black"/>
<path d="M398.781 365.652H299.138V390.818H398.781V365.652Z" fill="#7F7F7F"/>
<path d="M508.462 365.652H408.819V390.818H508.462V365.652Z" fill="#7F7F7F"/>
<path d="M618.143 365.652H518.5V390.818H618.143V365.652Z" fill="#7F7F7F"/>
<path d="M626.482 437.856H524.626C524.36 437.856 524.145 437.641 524.145 437.375C524.145 437.11 524.36 436.895 524.626 436.895H626.482C626.747 436.895 626.963 437.11 626.963 437.375C626.963 437.641 626.747 437.856 626.482 437.856Z" fill="black"/>
<path d="M505.001 437.856H406.981C406.715 437.856 406.5 437.641 406.5 437.375C406.5 437.11 406.715 436.895 406.981 436.895H505.001C505.266 436.895 505.482 437.11 505.482 437.375C505.482 437.641 505.266 437.856 505.001 437.856Z" fill="black"/>
<path d="M387.356 437.856H318.747C318.482 437.856 318.266 437.641 318.266 437.375C318.266 437.11 318.482 436.895 318.747 436.895H387.356C387.621 436.895 387.837 437.11 387.837 437.375C387.837 437.641 387.621 437.856 387.356 437.856Z" fill="black"/>
<path d="M606.856 467.089H568.104C567.838 467.089 567.623 466.874 567.623 466.608C567.623 466.342 567.838 466.127 568.104 466.127H606.856C607.122 466.127 607.337 466.342 607.337 466.608C607.337 466.874 607.122 467.089 606.856 467.089Z" fill="black"/>
<path d="M423.435 467.089H380.554C380.288 467.089 380.073 466.874 380.073 466.608C380.073 466.342 380.288 466.127 380.554 466.127H423.435C423.7 466.127 423.916 466.342 423.916 466.608C423.916 466.874 423.7 467.089 423.435 467.089Z" fill="black"/>
<path d="M360.928 467.089H330.025C329.759 467.089 329.544 466.874 329.544 466.608C329.544 466.342 329.759 466.127 330.025 466.127H360.928C361.194 466.127 361.409 466.342 361.409 466.608C361.409 466.874 361.194 467.089 360.928 467.089Z" fill="black"/>
<path d="M626.482 496.323H463.246C462.98 496.323 462.765 496.108 462.765 495.842C462.765 495.576 462.98 495.361 463.246 495.361H626.482C626.748 495.361 626.963 495.576 626.963 495.842C626.963 496.108 626.748 496.323 626.482 496.323Z" fill="black"/>
<path d="M443.621 496.323H380.554C380.288 496.323 380.073 496.108 380.073 495.842C380.073 495.576 380.288 495.361 380.554 495.361H443.621C443.886 495.361 444.102 495.576 444.102 495.842C444.102 496.108 443.886 496.323 443.621 496.323Z" fill="black"/>
<path d="M258.864 453.533C258.864 453.533 284.921 452.376 306.093 462.21C334.805 475.546 381.008 517.162 369.607 540.878C355.241 570.765 287.093 541.456 287.093 541.456L230.635 542.613C230.635 542.613 157.775 571.927 142.692 547.819C127.492 523.525 175.35 479.764 204.578 464.524C230.092 451.219 258.864 453.533 258.864 453.533Z" fill="white"/>
<path d="M167.247 557.85C154.719 557.85 146.359 554.586 142.284 548.074C139.093 542.974 138.459 536.775 140.398 529.647C147.058 505.163 181.821 475.847 204.355 464.096C229.336 451.071 257.785 452.971 258.872 453.05C259.898 453.01 285.58 452.151 306.295 461.772C330.016 472.79 361.986 500.529 369.935 522.716C372.467 529.784 372.503 535.964 370.041 541.086C366.693 548.051 360.198 552.413 350.736 554.05C343.238 555.348 333.864 554.943 322.873 552.847C304.933 549.426 288.414 542.537 287 541.938L230.732 543.092C229.373 543.632 211.647 550.599 192.421 554.726C182.718 556.809 174.318 557.85 167.247 557.85ZM253.864 453.871C244.546 453.871 223.668 455.111 204.8 464.95C192.778 471.218 178.611 481.711 166.904 493.018C153.307 506.149 144.223 519.247 141.326 529.899C139.46 536.757 140.057 542.7 143.099 547.563C157.799 571.058 229.73 542.458 230.455 542.166C230.509 542.145 230.567 542.133 230.625 542.132L287.082 540.975C287.148 540.973 287.219 540.987 287.282 541.014C287.452 541.087 304.499 548.366 323.066 551.904C340.078 555.148 361.886 555.829 369.173 540.669C371.52 535.788 371.471 529.857 369.029 523.04C361.16 501.076 329.438 473.583 305.89 462.645C285.065 452.973 259.145 454.002 258.885 454.013C258.865 454.014 258.845 454.013 258.825 454.012C258.754 454.006 256.938 453.871 253.864 453.871Z" fill="black"/>
<path d="M347.893 514.606C342.228 514.606 298.787 509.193 296.94 508.963C296.677 508.93 296.49 508.689 296.522 508.426C296.555 508.162 296.796 507.977 297.059 508.008C297.511 508.065 342.288 513.644 347.893 513.644C349.21 513.644 350.083 513.301 350.489 512.623C351.247 511.356 350.329 509.058 349.912 508.279C349.786 508.044 349.874 507.753 350.108 507.628C350.343 507.502 350.634 507.591 350.76 507.824C350.832 507.958 352.505 511.127 351.314 513.117C350.723 514.105 349.572 514.606 347.893 514.606Z" fill="black"/>
<path d="M164.983 514.606C163.305 514.606 162.154 514.104 161.562 513.117C160.371 511.127 162.045 507.958 162.117 507.824C162.242 507.59 162.533 507.502 162.768 507.628C163.002 507.753 163.09 508.044 162.965 508.278C162.548 509.059 161.632 511.361 162.389 512.624C162.794 513.301 163.668 513.644 164.984 513.644C170.589 513.644 215.366 508.065 215.817 508.008C216.078 507.977 216.322 508.162 216.354 508.426C216.387 508.689 216.2 508.93 215.937 508.963C214.09 509.193 170.649 514.606 164.983 514.606Z" fill="black"/>
<path d="M305.182 535.648H207.27V590.824H305.182V535.648Z" fill="white"/>
<path d="M303.856 539.963H210.135C208.375 539.963 206.849 538.747 206.455 537.03L194.017 482.943C193.473 480.575 195.27 478.314 197.698 478.314H316.294C318.722 478.314 320.519 480.575 319.975 482.943L307.537 537.03C307.142 538.747 305.616 539.963 303.856 539.963Z" fill="#4B371C"/>
<path d="M256.996 508.215C258.696 508.215 260.075 506.352 260.075 504.054C260.075 501.756 258.696 499.893 256.996 499.893C255.295 499.893 253.917 501.756 253.917 504.054C253.917 506.352 255.295 508.215 256.996 508.215Z" fill="white"/>
<path d="M342.777 704.346L290.168 710.471C275.735 712.151 261.567 705.567 253.292 693.332L180.829 586.206C166.899 565.611 179.457 537.236 203.753 534.408C215.421 533.049 226.891 538.281 233.716 548.075L324.295 678.07L345.516 689.762C352.069 693.373 350.17 703.486 342.777 704.346Z" fill="white"/>
<path d="M285.688 711.211C272.685 711.212 260.414 704.719 252.894 693.601L180.431 586.475C173.688 576.507 172.671 564 177.709 553.02C182.586 542.393 192.301 535.256 203.697 533.929C204.384 533.849 205.088 533.79 205.787 533.754C206.047 533.742 206.279 533.946 206.292 534.21C206.306 534.476 206.102 534.702 205.836 534.715C205.157 534.75 204.475 534.807 203.809 534.884C192.749 536.172 183.319 543.102 178.584 553.421C173.687 564.094 174.675 576.248 181.228 585.935L253.69 693.062C261.029 703.912 273.005 710.248 285.69 710.249C287.157 710.249 288.632 710.165 290.112 709.992L342.722 703.868C345.848 703.504 348.27 701.224 348.891 698.06C349.525 694.831 348.109 691.739 345.284 690.183L324.062 678.491C323.998 678.455 323.942 678.405 323.9 678.344L233.321 548.349C231.549 545.806 229.435 543.541 227.039 541.618C226.832 541.452 226.798 541.149 226.965 540.942C227.131 540.735 227.434 540.703 227.641 540.868C230.109 542.848 232.285 545.181 234.11 547.8L324.625 677.702L345.748 689.34C348.947 691.102 350.551 694.598 349.835 698.245C349.131 701.827 346.383 704.409 342.833 704.822L290.223 710.947C288.707 711.124 287.192 711.211 285.688 711.211Z" fill="black"/>
<path d="M266.695 700.113C266.537 700.113 266.383 700.035 266.29 699.893C266.146 699.67 266.21 699.372 266.433 699.228C298.046 678.74 323.996 677.583 324.254 677.574C324.517 677.55 324.742 677.772 324.752 678.037C324.762 678.302 324.555 678.525 324.289 678.535C324.033 678.544 298.33 679.703 266.956 700.035C266.875 700.088 266.785 700.113 266.695 700.113Z" fill="black"/>
<path d="M174.914 704.681L227.443 710.161C241.876 711.841 255.782 705.428 264.058 693.193L335.821 585.207C349.751 564.613 337.428 536.219 313.132 533.39C301.464 532.032 289.993 537.264 283.169 547.058L193.246 678.072L172.175 690.097C165.622 693.708 167.521 703.821 174.914 704.681Z" fill="white"/>
<path d="M231.789 710.887C230.393 710.887 228.991 710.812 227.582 710.66L174.925 704.983C171.373 704.6 168.604 702.042 167.87 698.467C167.123 694.826 168.699 691.316 171.885 689.526L192.913 677.708L282.373 547.041C283.803 544.953 285.465 543.032 287.315 541.331C287.511 541.151 287.815 541.164 287.995 541.359C288.175 541.555 288.162 541.859 287.966 542.039C286.17 543.69 284.556 545.556 283.167 547.585L193.644 678.345C193.602 678.406 193.547 678.456 193.482 678.492L172.356 690.365C169.542 691.946 168.152 695.051 168.813 698.274C169.461 701.432 171.901 703.69 175.029 704.027L227.686 709.704C241.977 711.243 255.88 704.64 263.97 692.465L335.563 584.726C342.039 574.981 342.928 562.817 337.941 552.185C333.121 541.909 323.637 535.062 312.57 533.869C312.306 533.841 312.115 533.604 312.144 533.339C312.172 533.075 312.409 532.885 312.674 532.913C324.077 534.142 333.849 541.194 338.812 551.777C343.943 562.715 343.028 575.232 336.365 585.259L264.771 692.998C257.278 704.273 244.914 710.886 231.789 710.887Z" fill="black"/>
<path d="M250.991 700.112C250.901 700.112 250.811 700.088 250.73 700.035C219.337 679.69 193.653 678.544 193.397 678.535C193.132 678.525 192.924 678.302 192.933 678.037C192.943 677.772 193.166 677.552 193.432 677.574C193.69 677.583 219.64 678.74 251.253 699.228C251.476 699.372 251.54 699.67 251.395 699.893C251.303 700.035 251.149 700.112 250.991 700.112Z" fill="black"/>
<path d="M275.829 437.015C275.829 437.015 285.169 410.146 273.571 411.533C273.571 411.533 267.157 399.203 255.918 408.451C255.918 408.451 248.683 402.44 242.679 413.075C242.679 413.075 236.11 411.687 235.289 421.551C234.468 431.415 240.318 440.097 240.318 440.097L275.829 437.015Z" fill="black"/>
<path d="M258.587 469.39C252.629 469.39 247.951 464.278 248.472 458.336L249.392 438.863H267.781L268.701 458.336C269.223 464.278 264.545 469.39 258.587 469.39Z" fill="white"/>
<path d="M258.587 469.871C255.615 469.871 252.759 468.614 250.75 466.422C248.737 464.226 247.733 461.263 247.993 458.294L248.912 438.841C248.924 438.585 249.136 438.383 249.393 438.383H267.781C268.038 438.383 268.249 438.585 268.262 438.841L269.182 458.314C269.441 461.263 268.436 464.226 266.424 466.422C264.415 468.614 261.558 469.871 258.587 469.871ZM249.851 439.345L248.953 458.359C248.715 461.079 249.629 463.774 251.459 465.772C253.286 467.766 255.884 468.909 258.587 468.909C261.289 468.909 263.887 467.766 265.714 465.772C267.545 463.774 268.459 461.079 268.222 458.379L267.322 439.345H249.851Z" fill="black"/>
<path d="M274.531 434.894C268.413 435.049 269.771 425.762 269.771 425.762C263.997 433.005 257.07 426.995 257.07 426.995C246.967 436.55 241.645 425.222 242.348 428.227C243.403 432.733 241.508 435.206 240.758 435.976C238.17 434.327 233.984 432.592 234.552 439.131C235.186 446.435 239.816 443.661 241.833 442.077C243.838 448.617 248 455.762 257.766 455.456C267.2 455.16 271.936 448.265 273.792 441.543C275.998 443.106 279.938 444.882 280.52 438.185C281.072 431.826 277.129 433.292 274.531 434.894Z" fill="white"/>
<path d="M257.163 455.946C249.662 455.946 244.423 451.551 241.58 442.868C240.075 443.942 238.129 444.88 236.512 444.179C235.13 443.579 234.309 441.895 234.073 439.173C233.851 436.615 234.301 435.033 235.451 434.337C236.627 433.624 238.381 433.968 240.67 435.356C241.496 434.368 242.768 432.131 241.88 428.337C241.809 428.036 241.692 427.532 242.081 427.299C242.472 427.066 242.802 427.356 243.35 427.839C245.066 429.352 249.627 433.372 256.74 426.646C256.918 426.477 257.198 426.47 257.385 426.632C257.414 426.657 260.342 429.154 263.838 428.825C265.9 428.633 267.769 427.502 269.395 425.462C269.531 425.292 269.763 425.235 269.962 425.321C270.162 425.407 270.279 425.617 270.247 425.832C270.24 425.882 269.535 430.926 271.605 433.257C272.296 434.036 273.204 434.415 274.377 434.415C274.383 434.415 274.388 434.415 274.393 434.415C276.698 433.018 278.461 432.675 279.636 433.399C280.775 434.101 281.221 435.68 281 438.227C280.767 440.907 279.967 442.582 278.623 443.205C277.17 443.876 275.431 443.168 274.071 442.309C272.712 446.755 268.647 455.596 257.781 455.937C257.573 455.943 257.367 455.946 257.163 455.946ZM241.834 441.596C241.882 441.596 241.93 441.603 241.977 441.618C242.129 441.665 242.247 441.784 242.293 441.936C245.056 450.949 250.098 455.205 257.751 454.976C268.138 454.649 271.969 446.34 273.328 441.415C273.37 441.264 273.482 441.143 273.63 441.09C273.778 441.038 273.942 441.059 274.07 441.151C275.059 441.852 276.913 442.936 278.218 442.332C279.226 441.864 279.84 440.456 280.041 438.143C280.222 436.054 279.907 434.697 279.131 434.218C278.296 433.703 276.752 434.09 274.783 435.304C274.711 435.348 274.628 435.373 274.543 435.375C273.018 435.416 271.789 434.916 270.883 433.894C269.256 432.06 269.1 428.978 269.172 427.157C267.605 428.725 265.843 429.607 263.918 429.783C260.706 430.077 258.019 428.324 257.094 427.629C249.841 434.254 244.853 430.421 242.952 428.77C243.732 433.043 241.941 435.451 241.102 436.312C240.943 436.475 240.692 436.505 240.499 436.382C238.434 435.066 236.819 434.633 235.949 435.159C235.166 435.634 234.849 436.993 235.031 439.09C235.235 441.433 235.862 442.849 236.895 443.296C238.356 443.929 240.43 442.567 241.536 441.699C241.622 441.631 241.727 441.596 241.834 441.596Z" fill="black"/>
<path d="M275.726 439.448C275.612 439.448 275.497 439.407 275.405 439.325C275.207 439.148 275.191 438.844 275.368 438.646L278.036 435.666C278.214 435.468 278.518 435.451 278.716 435.629C278.914 435.806 278.93 436.11 278.753 436.308L276.085 439.287C275.99 439.393 275.858 439.448 275.726 439.448Z" fill="black"/>
<path d="M239.647 440.395C239.515 440.395 239.383 440.341 239.288 440.235L236.62 437.255C236.443 437.057 236.459 436.753 236.657 436.576C236.856 436.398 237.159 436.416 237.337 436.613L240.005 439.593C240.182 439.791 240.165 440.095 239.967 440.272C239.875 440.354 239.761 440.395 239.647 440.395Z" fill="black"/>
<path d="M738.218 395.547V368.297C738.218 359.25 730.866 351.916 721.798 351.916H448.139C439.07 351.916 431.718 359.25 431.718 368.297V395.547H738.218Z" fill="white"/>
<path d="M718.21 534.189H451.726C440.676 534.189 431.718 525.233 431.718 514.185V383.748H738.218V514.185C738.218 525.233 729.26 534.189 718.21 534.189Z" fill="white"/>
<path d="M718.21 534.67H451.726C440.429 534.67 431.238 525.481 431.238 514.185V383.749C431.238 383.483 431.453 383.268 431.719 383.268H738.218C738.484 383.268 738.699 383.483 738.699 383.749V514.185C738.699 525.481 729.508 534.67 718.21 534.67ZM432.2 384.229V514.185C432.2 524.95 440.959 533.708 451.726 533.708H718.21C728.977 533.708 737.737 524.95 737.737 514.185V384.229H432.2Z" fill="black"/>
<path d="M738.218 375.577C737.952 375.577 737.737 375.361 737.737 375.096V368.297C737.737 359.53 730.587 352.398 721.798 352.398H448.139C439.35 352.398 432.2 359.53 432.2 368.297V375.096C432.2 375.361 431.984 375.577 431.719 375.577C431.453 375.577 431.238 375.361 431.238 375.096V368.297C431.238 359 438.819 351.436 448.139 351.436H721.798C731.117 351.436 738.699 359 738.699 368.297V375.096C738.699 375.361 738.484 375.577 738.218 375.577Z" fill="black"/>
<path d="M460.188 375.096C463.545 375.096 466.266 372.382 466.266 369.033C466.266 365.685 463.545 362.971 460.188 362.971C456.832 362.971 454.111 365.685 454.111 369.033C454.111 372.382 456.832 375.096 460.188 375.096Z" fill="#4B371C"/>
<path d="M477.924 375.577C474.307 375.577 471.365 372.642 471.365 369.034C471.365 365.426 474.307 362.49 477.924 362.49C481.54 362.49 484.482 365.426 484.482 369.034C484.482 372.642 481.54 375.577 477.924 375.577ZM477.924 363.452C474.838 363.452 472.327 365.956 472.327 369.034C472.327 372.112 474.838 374.615 477.924 374.615C481.009 374.615 483.52 372.111 483.52 369.034C483.52 365.956 481.009 363.452 477.924 363.452Z" fill="black"/>
<path d="M495.659 375.577C492.043 375.577 489.101 372.642 489.101 369.034C489.101 365.426 492.043 362.49 495.659 362.49C499.275 362.49 502.217 365.426 502.217 369.034C502.217 372.642 499.275 375.577 495.659 375.577ZM495.659 363.452C492.573 363.452 490.063 365.956 490.063 369.034C490.063 372.112 492.573 374.615 495.659 374.615C498.745 374.615 501.255 372.111 501.255 369.034C501.255 365.956 498.745 363.452 495.659 363.452Z" fill="black"/>
<path d="M711.356 407.168H501.736V439.001H711.356V407.168Z" fill="#4B371C"/>
<path d="M521.659 432.241C526.728 432.241 530.838 428.141 530.838 423.084C530.838 418.027 526.728 413.928 521.659 413.928C516.59 413.928 512.481 418.027 512.481 423.084C512.481 428.141 516.59 432.241 521.659 432.241Z" fill="white"/>
<path d="M550.761 432.241C555.83 432.241 559.939 428.141 559.939 423.084C559.939 418.027 555.83 413.928 550.761 413.928C545.692 413.928 541.582 418.027 541.582 423.084C541.582 428.141 545.692 432.241 550.761 432.241Z" fill="white"/>
<path d="M579.863 432.241C584.932 432.241 589.041 428.141 589.041 423.084C589.041 418.027 584.932 413.928 579.863 413.928C574.793 413.928 570.684 418.027 570.684 423.084C570.684 428.141 574.793 432.241 579.863 432.241Z" fill="white"/>
<path d="M608.964 432.241C614.034 432.241 618.143 428.141 618.143 423.084C618.143 418.027 614.034 413.928 608.964 413.928C603.895 413.928 599.786 418.027 599.786 423.084C599.786 428.141 603.895 432.241 608.964 432.241Z" fill="white"/>
<path d="M638.066 432.241C643.135 432.241 647.244 428.141 647.244 423.084C647.244 418.027 643.135 413.928 638.066 413.928C632.997 413.928 628.887 418.027 628.887 423.084C628.887 428.141 632.997 432.241 638.066 432.241Z" fill="white"/>
<path d="M476.736 412.975C476.736 416.183 474.129 418.783 470.913 418.783C467.697 418.783 465.09 416.183 465.09 412.975C465.09 409.768 467.697 407.168 470.913 407.168C474.129 407.168 476.736 409.768 476.736 412.975Z" fill="#4B371C"/>
<path d="M470.913 422.197C463.907 422.197 457.948 422.084 455.729 428.312C457.948 434.539 463.907 439 470.913 439C477.918 439 483.877 434.539 486.096 428.312C483.877 422.084 477.918 422.197 470.913 422.197Z" fill="#4B371C"/>
<path d="M711.356 458.363H501.736V490.196H711.356V458.363Z" fill="#4B371C"/>
<path d="M521.659 483.436C526.728 483.436 530.838 479.336 530.838 474.279C530.838 469.222 526.728 465.123 521.659 465.123C516.59 465.123 512.481 469.222 512.481 474.279C512.481 479.336 516.59 483.436 521.659 483.436Z" fill="white"/>
<path d="M550.761 483.436C555.83 483.436 559.939 479.336 559.939 474.279C559.939 469.222 555.83 465.123 550.761 465.123C545.692 465.123 541.582 469.222 541.582 474.279C541.582 479.336 545.692 483.436 550.761 483.436Z" fill="white"/>
<path d="M579.863 483.436C584.932 483.436 589.041 479.336 589.041 474.279C589.041 469.222 584.932 465.123 579.863 465.123C574.793 465.123 570.684 469.222 570.684 474.279C570.684 479.336 574.793 483.436 579.863 483.436Z" fill="white"/>
<path d="M608.964 483.436C614.034 483.436 618.143 479.336 618.143 474.279C618.143 469.222 614.034 465.123 608.964 465.123C603.895 465.123 599.786 469.222 599.786 474.279C599.786 479.336 603.895 483.436 608.964 483.436Z" fill="white"/>
<path d="M638.066 483.436C643.135 483.436 647.244 479.336 647.244 474.279C647.244 469.222 643.135 465.123 638.066 465.123C632.997 465.123 628.887 469.222 628.887 474.279C628.887 479.336 632.997 483.436 638.066 483.436Z" fill="white"/>
<path d="M667.168 483.436C672.237 483.436 676.346 479.336 676.346 474.279C676.346 469.222 672.237 465.123 667.168 465.123C662.099 465.123 657.989 469.222 657.989 474.279C657.989 479.336 662.099 483.436 667.168 483.436Z" fill="white"/>
<path d="M481.738 472.264H460.087C459.273 472.264 458.614 472.92 458.614 473.73V480.197C458.614 485.719 463.112 490.195 468.661 490.195H473.164C478.713 490.195 483.211 485.719 483.211 480.197V473.73C483.211 472.92 482.552 472.264 481.738 472.264Z" fill="#4B371C"/>
<path d="M479.69 470.552C479.191 470.552 478.786 470.149 478.786 469.652V466.614C478.786 463.057 475.878 460.163 472.303 460.163H469.522C465.948 460.163 463.039 463.057 463.039 466.614V469.652C463.039 470.149 462.634 470.552 462.135 470.552C461.636 470.552 461.231 470.149 461.231 469.652V466.614C461.231 462.065 464.95 458.363 469.523 458.363H472.303C476.875 458.363 480.595 462.065 480.595 466.614V469.652C480.595 470.149 480.19 470.552 479.69 470.552Z" fill="#4B371C"/>
<path d="M473.132 478.282C473.132 477.063 472.138 476.074 470.913 476.074C469.687 476.074 468.693 477.063 468.693 478.282C468.693 479.118 469.16 479.845 469.848 480.221V484.477C469.848 485.062 470.325 485.537 470.913 485.537C471.5 485.537 471.977 485.062 471.977 484.477V480.221C472.665 479.845 473.132 479.118 473.132 478.282Z" fill="white"/>
<path d="M225.599 342.163C225.569 344.432 227.388 346.296 229.663 346.326C229.832 346.328 229.999 346.317 230.163 346.299C230.551 347.954 231.182 349.516 232.02 350.945C231.888 351.045 231.76 351.151 231.638 351.269C230.009 352.852 229.974 355.453 231.561 357.079C233.148 358.705 235.755 358.74 237.385 357.157C237.507 357.039 237.617 356.914 237.72 356.785C239.129 357.658 240.678 358.329 242.326 358.76C242.304 358.924 242.288 359.089 242.286 359.258C242.255 361.527 244.075 363.391 246.349 363.422C248.624 363.452 250.492 361.637 250.523 359.368C250.525 359.199 250.514 359.033 250.496 358.869C252.155 358.482 253.721 357.852 255.153 357.017C255.253 357.148 255.36 357.276 255.478 357.397C257.065 359.023 259.672 359.058 261.302 357.475C262.932 355.892 262.967 353.29 261.38 351.664C261.261 351.543 261.136 351.434 261.007 351.331C261.883 349.924 262.555 348.38 262.987 346.736C263.151 346.758 263.317 346.773 263.486 346.776C265.761 346.806 267.629 344.991 267.66 342.722C267.69 340.453 265.871 338.589 263.596 338.559C263.426 338.557 263.26 338.568 263.096 338.585C262.708 336.931 262.077 335.369 261.239 333.94C261.371 333.84 261.499 333.734 261.62 333.616C263.25 332.033 263.285 329.431 261.698 327.805C260.111 326.18 257.504 326.145 255.874 327.728C255.752 327.846 255.642 327.971 255.539 328.1C254.129 327.226 252.581 326.556 250.933 326.125C250.955 325.961 250.971 325.795 250.973 325.626C251.003 323.357 249.184 321.493 246.91 321.463C244.635 321.433 242.767 323.248 242.736 325.517C242.734 325.686 242.745 325.852 242.763 326.016C241.104 326.403 239.538 327.033 238.106 327.868C238.006 327.737 237.899 327.609 237.781 327.488C236.194 325.862 233.587 325.827 231.957 327.41C230.327 328.993 230.292 331.595 231.879 333.221C231.998 333.342 232.123 333.451 232.252 333.555C231.377 334.961 230.704 336.506 230.272 338.149C230.108 338.127 229.942 338.112 229.772 338.109C227.498 338.079 225.629 339.894 225.599 342.163ZM238.981 342.341C239.038 338.127 242.507 334.757 246.731 334.813C250.955 334.869 254.334 338.331 254.278 342.544C254.221 346.758 250.751 350.128 246.527 350.072C242.303 350.016 238.925 346.555 238.981 342.341Z" fill="white"/>
<path d="M246.405 363.904C246.384 363.904 246.363 363.903 246.343 363.903C245.114 363.887 243.966 363.395 243.108 362.516C242.251 361.638 241.788 360.479 241.804 359.253C241.805 359.209 241.806 359.164 241.808 359.118C240.409 358.717 239.069 358.142 237.816 357.406C237.784 357.439 237.752 357.471 237.72 357.503C235.903 359.268 232.985 359.229 231.216 357.416C230.358 356.538 229.896 355.378 229.912 354.152C229.928 352.926 230.422 351.78 231.303 350.925C231.334 350.894 231.367 350.863 231.401 350.832C230.697 349.564 230.157 348.213 229.792 346.807C229.747 346.808 229.702 346.808 229.657 346.808C227.12 346.773 225.084 344.688 225.118 342.157C225.151 339.648 227.209 337.628 229.717 337.628C229.782 337.629 229.847 337.63 229.915 337.633C230.318 336.238 230.893 334.901 231.631 333.652C231.597 333.62 231.566 333.588 231.535 333.557C230.678 332.678 230.214 331.52 230.231 330.294C230.247 329.068 230.741 327.921 231.622 327.066C233.439 325.301 236.356 325.34 238.126 327.152C238.157 327.184 238.188 327.217 238.219 327.251C239.491 326.549 240.846 326.01 242.256 325.646C242.255 325.6 242.255 325.556 242.255 325.511C242.289 323.002 244.346 320.982 246.854 320.982C246.875 320.982 246.895 320.983 246.916 320.983C248.144 320.999 249.293 321.492 250.15 322.37C251.007 323.249 251.471 324.407 251.454 325.634C251.454 325.678 251.452 325.722 251.45 325.768C252.849 326.169 254.189 326.744 255.443 327.48C255.475 327.447 255.507 327.415 255.539 327.384C257.355 325.619 260.273 325.658 262.043 327.471C262.9 328.349 263.363 329.508 263.347 330.734C263.33 331.96 262.836 333.106 261.956 333.962C261.924 333.992 261.891 334.023 261.858 334.054C262.562 335.323 263.101 336.674 263.466 338.079C263.512 338.078 263.557 338.079 263.602 338.079C266.139 338.113 268.175 340.199 268.141 342.729C268.124 343.956 267.63 345.102 266.75 345.957C265.87 346.812 264.723 347.278 263.48 347.258C263.435 347.257 263.39 347.256 263.344 347.254C262.941 348.649 262.366 349.985 261.628 351.235C261.661 351.266 261.693 351.298 261.724 351.329C262.581 352.208 263.044 353.367 263.028 354.594C263.012 355.819 262.517 356.965 261.637 357.821C259.82 359.586 256.902 359.546 255.133 357.734C255.102 357.702 255.071 357.669 255.04 357.635C253.768 358.338 252.413 358.877 251.003 359.241C251.004 359.287 251.004 359.331 251.003 359.375C250.97 361.885 248.912 363.903 246.405 363.904ZM237.72 356.305C237.807 356.305 237.895 356.328 237.973 356.377C239.361 357.237 240.866 357.882 242.447 358.296C242.682 358.357 242.835 358.585 242.802 358.826C242.783 358.97 242.769 359.116 242.767 359.266C242.754 360.234 243.12 361.15 243.797 361.844C244.475 362.539 245.384 362.929 246.356 362.942C246.372 362.942 246.388 362.942 246.405 362.942C248.388 362.942 250.015 361.346 250.041 359.362C250.043 359.213 250.033 359.067 250.017 358.922C249.991 358.68 250.149 358.457 250.386 358.402C251.979 358.03 253.501 357.425 254.91 356.603C255.119 356.479 255.388 356.533 255.535 356.726C255.623 356.842 255.717 356.955 255.822 357.062C257.221 358.497 259.529 358.526 260.966 357.131C261.662 356.455 262.053 355.549 262.066 354.58C262.079 353.612 261.713 352.696 261.035 352.001C260.931 351.895 260.82 351.798 260.706 351.707C260.516 351.555 260.47 351.284 260.599 351.078C261.46 349.694 262.107 348.192 262.522 346.615C262.584 346.38 262.811 346.23 263.052 346.26C263.196 346.279 263.343 346.294 263.493 346.295C263.51 346.296 263.526 346.296 263.543 346.296C264.496 346.296 265.395 345.931 266.079 345.267C266.775 344.591 267.166 343.685 267.178 342.716C267.205 340.716 265.595 339.067 263.59 339.04C263.44 339.041 263.294 339.049 263.148 339.064C262.906 339.09 262.683 338.933 262.627 338.696C262.255 337.108 261.648 335.59 260.824 334.184C260.701 333.974 260.754 333.705 260.948 333.558C261.064 333.469 261.178 333.376 261.285 333.271C261.981 332.595 262.372 331.69 262.384 330.721C262.397 329.752 262.031 328.836 261.354 328.142C259.954 326.708 257.646 326.678 256.209 328.074C256.102 328.178 256.005 328.289 255.914 328.402C255.761 328.591 255.492 328.637 255.286 328.509C253.898 327.649 252.393 327.004 250.811 326.591C250.576 326.529 250.424 326.302 250.456 326.061C250.476 325.916 250.49 325.77 250.492 325.62C250.505 324.652 250.139 323.736 249.461 323.042C248.783 322.347 247.875 321.957 246.903 321.944C246.887 321.944 246.871 321.944 246.854 321.944C244.87 321.944 243.244 323.54 243.217 325.524C243.215 325.673 243.225 325.82 243.241 325.965C243.267 326.206 243.109 326.429 242.872 326.484C241.28 326.856 239.758 327.462 238.348 328.284C238.139 328.406 237.872 328.353 237.724 328.16C237.635 328.044 237.541 327.93 237.437 327.823C236.037 326.389 233.729 326.36 232.292 327.755C231.596 328.432 231.206 329.337 231.193 330.306C231.18 331.275 231.546 332.19 232.224 332.885C232.328 332.992 232.439 333.088 232.553 333.18C232.742 333.332 232.788 333.602 232.66 333.809C231.798 335.192 231.152 336.694 230.737 338.271C230.675 338.506 230.447 338.658 230.207 338.626C230.062 338.606 229.915 338.592 229.765 338.59C227.749 338.565 226.107 340.17 226.08 342.17C226.053 344.17 227.663 345.819 229.669 345.846C229.815 345.847 229.965 345.838 230.11 345.821C230.348 345.795 230.575 345.953 230.631 346.19C231.003 347.778 231.61 349.297 232.434 350.702C232.557 350.912 232.504 351.18 232.31 351.328C232.194 351.416 232.08 351.51 231.973 351.615C231.277 352.29 230.886 353.196 230.874 354.164C230.861 355.133 231.227 356.049 231.904 356.743C233.304 358.177 235.612 358.208 237.049 356.812C237.156 356.708 237.253 356.597 237.345 356.483C237.44 356.367 237.579 356.305 237.72 356.305ZM246.63 350.555C246.594 350.555 246.558 350.555 246.521 350.554C244.35 350.525 242.32 349.654 240.805 348.102C239.289 346.55 238.471 344.502 238.5 342.335C238.529 340.168 239.402 338.143 240.958 336.631C242.514 335.12 244.561 334.293 246.737 334.333C248.909 334.361 250.939 335.232 252.454 336.784C253.969 338.337 254.787 340.385 254.759 342.552C254.699 346.987 251.063 350.555 246.63 350.555ZM246.626 335.294C244.748 335.294 242.977 336.012 241.628 337.321C240.257 338.653 239.488 340.439 239.462 342.348C239.437 344.258 240.158 346.062 241.493 347.43C242.829 348.799 244.619 349.567 246.534 349.592C250.496 349.665 253.744 346.48 253.796 342.538C253.822 340.629 253.1 338.824 251.765 337.456C250.429 336.087 248.639 335.32 246.725 335.295C246.692 335.294 246.659 335.294 246.626 335.294Z" fill="black"/>
<path d="M155.67 355.43C153.057 358.492 153.428 363.087 156.498 365.692C156.727 365.887 156.966 366.059 157.21 366.22C155.865 368.915 154.956 371.759 154.48 374.653C154.188 374.641 153.892 374.641 153.593 374.665C149.575 374.988 146.581 378.498 146.904 382.506C147.228 386.514 150.747 389.501 154.764 389.179C155.064 389.155 155.355 389.108 155.642 389.049C156.576 391.83 157.929 394.491 159.689 396.938C159.474 397.136 159.265 397.344 159.071 397.572C156.458 400.634 156.829 405.229 159.899 407.835C162.968 410.441 167.574 410.071 170.186 407.009C170.381 406.781 170.553 406.542 170.715 406.298C173.417 407.64 176.267 408.547 179.168 409.021C179.156 409.313 179.156 409.608 179.18 409.907C179.504 413.914 183.023 416.902 187.04 416.579C191.058 416.257 194.053 412.746 193.729 408.738C193.705 408.44 193.658 408.149 193.599 407.863C196.387 406.931 199.055 405.581 201.507 403.825C201.705 404.04 201.914 404.248 202.143 404.443C205.212 407.048 209.818 406.679 212.431 403.616C215.043 400.554 214.672 395.96 211.602 393.354C211.374 393.159 211.134 392.987 210.89 392.826C212.235 390.131 213.144 387.287 213.62 384.393C213.913 384.405 214.208 384.405 214.507 384.381C218.525 384.058 221.519 380.548 221.196 376.54C220.873 372.532 217.354 369.545 213.336 369.867C213.037 369.892 212.745 369.938 212.458 369.997C211.524 367.216 210.171 364.555 208.411 362.109C208.626 361.911 208.835 361.702 209.03 361.474C211.642 358.412 211.271 353.817 208.202 351.211C205.132 348.605 200.526 348.975 197.914 352.038C197.72 352.266 197.547 352.505 197.385 352.749C194.683 351.407 191.833 350.5 188.932 350.025C188.944 349.733 188.944 349.438 188.92 349.14C188.596 345.132 185.077 342.144 181.06 342.467C177.042 342.79 174.048 346.301 174.371 350.308C174.395 350.607 174.443 350.897 174.501 351.184C171.714 352.116 169.045 353.466 166.593 355.221C166.395 355.007 166.186 354.798 165.957 354.604C162.887 351.998 158.282 352.368 155.67 355.43ZM173.729 370.761C178.579 365.074 187.133 364.387 192.833 369.226C198.534 374.066 199.222 382.599 194.372 388.285C189.521 393.972 180.967 394.659 175.267 389.819C169.566 384.98 168.878 376.447 173.729 370.761Z" fill="white"/>
<path d="M186.45 417.085C182.441 417.085 179.028 414.001 178.701 409.946C178.688 409.781 178.68 409.609 178.68 409.426C175.976 408.946 173.354 408.101 170.875 406.912C170.767 407.059 170.66 407.195 170.552 407.321C167.772 410.58 162.853 410.975 159.587 408.202C158.004 406.858 157.041 404.98 156.874 402.913C156.708 400.846 157.358 398.839 158.704 397.26C158.812 397.135 158.929 397.008 159.057 396.878C157.484 394.627 156.229 392.181 155.322 389.596C155.14 389.625 154.969 389.645 154.803 389.659C150.534 390 146.769 386.81 146.425 382.545C146.258 380.478 146.908 378.471 148.255 376.892C149.602 375.313 151.484 374.352 153.555 374.186C153.72 374.173 153.892 374.166 154.076 374.165C154.558 371.469 155.404 368.854 156.596 366.381C156.449 366.273 156.313 366.167 156.186 366.06C154.604 364.716 153.64 362.837 153.474 360.771C153.307 358.704 153.957 356.697 155.304 355.118C155.304 355.118 155.304 355.118 155.304 355.118C158.084 351.86 163.002 351.465 166.269 354.237C166.396 354.346 166.523 354.463 166.653 354.591C168.908 353.022 171.361 351.77 173.954 350.863C173.925 350.683 173.905 350.512 173.892 350.347C173.725 348.28 174.375 346.273 175.722 344.694C177.068 343.115 178.95 342.154 181.022 341.988C185.304 341.645 189.055 344.836 189.399 349.102C189.413 349.267 189.42 349.439 189.421 349.621C192.125 350.101 194.746 350.946 197.226 352.136C197.334 351.988 197.44 351.852 197.548 351.726C200.328 348.467 205.247 348.072 208.513 350.845C210.096 352.189 211.059 354.067 211.226 356.135C211.392 358.201 210.743 360.208 209.396 361.787C209.288 361.913 209.171 362.04 209.043 362.169C210.616 364.42 211.87 366.866 212.779 369.451C212.959 369.423 213.131 369.402 213.297 369.389C217.566 369.043 221.331 372.237 221.675 376.502C221.842 378.569 221.192 380.576 219.845 382.155C218.498 383.734 216.617 384.695 214.545 384.861C214.38 384.874 214.207 384.882 214.024 384.883C213.541 387.58 212.695 390.195 211.504 392.667C211.651 392.774 211.786 392.879 211.914 392.988C213.496 394.332 214.46 396.21 214.626 398.277C214.793 400.343 214.143 402.351 212.796 403.929C210.017 407.188 205.098 407.583 201.831 404.81C201.703 404.701 201.577 404.586 201.447 404.457C199.191 406.026 196.738 407.278 194.146 408.185C194.174 408.364 194.195 408.535 194.208 408.7C194.375 410.767 193.725 412.774 192.378 414.353C191.032 415.932 189.15 416.893 187.079 417.06C186.868 417.077 186.658 417.085 186.45 417.085ZM170.715 405.817C170.787 405.817 170.86 405.834 170.929 405.868C173.556 407.172 176.355 408.074 179.245 408.547C179.485 408.587 179.658 408.799 179.648 409.041C179.636 409.349 179.64 409.62 179.66 409.868C179.961 413.606 183.258 416.404 187.002 416.101C188.817 415.955 190.466 415.113 191.646 413.729C192.826 412.346 193.396 410.588 193.25 408.777C193.229 408.528 193.19 408.261 193.128 407.96C193.079 407.722 193.216 407.485 193.447 407.407C196.225 406.479 198.842 405.142 201.227 403.435C201.424 403.295 201.695 403.322 201.86 403.5C202.074 403.732 202.263 403.915 202.454 404.077C205.317 406.507 209.628 406.161 212.064 403.305C213.244 401.923 213.813 400.165 213.668 398.355C213.522 396.544 212.678 394.899 211.291 393.722C211.099 393.559 210.887 393.402 210.625 393.229C210.422 393.095 210.35 392.83 210.459 392.613C211.766 389.992 212.67 387.201 213.145 384.316C213.185 384.076 213.4 383.893 213.64 383.914C213.948 383.927 214.219 383.924 214.467 383.902C216.283 383.757 217.933 382.915 219.113 381.531C220.293 380.148 220.862 378.39 220.716 376.58C220.414 372.843 217.119 370.044 213.374 370.348C213.125 370.368 212.856 370.408 212.553 370.469C212.315 370.514 212.079 370.381 212.002 370.151C211.071 367.38 209.731 364.769 208.02 362.39C207.878 362.193 207.906 361.92 208.085 361.756C208.312 361.547 208.501 361.353 208.664 361.163C209.843 359.78 210.412 358.022 210.267 356.212C210.121 354.402 209.277 352.756 207.89 351.579C205.028 349.148 200.716 349.494 198.28 352.351C198.118 352.54 197.957 352.758 197.786 353.015C197.652 353.217 197.388 353.287 197.171 353.18C194.543 351.875 191.745 350.974 188.854 350.5C188.615 350.461 188.442 350.249 188.452 350.006C188.464 349.699 188.46 349.428 188.44 349.179C188.139 345.443 184.849 342.643 181.098 342.948C179.283 343.093 177.634 343.935 176.454 345.319C175.274 346.702 174.704 348.46 174.85 350.27C174.87 350.518 174.91 350.786 174.972 351.088C175.021 351.326 174.884 351.564 174.653 351.641C171.874 352.57 169.256 353.906 166.874 355.613C166.676 355.755 166.404 355.727 166.24 355.548C166.031 355.323 165.837 355.134 165.646 354.971C162.783 352.54 158.472 352.886 156.036 355.743C154.856 357.126 154.287 358.884 154.433 360.693C154.578 362.504 155.422 364.149 156.809 365.326C157 365.488 157.218 365.65 157.475 365.82C157.678 365.953 157.75 366.218 157.641 366.436C156.333 369.057 155.429 371.849 154.955 374.732C154.916 374.972 154.704 375.155 154.461 375.134C154.147 375.122 153.883 375.125 153.631 375.146C151.816 375.291 150.167 376.133 148.987 377.517C147.807 378.9 147.238 380.658 147.384 382.468C147.686 386.206 150.978 389.007 154.726 388.7C154.975 388.681 155.243 388.641 155.547 388.579C155.782 388.533 156.021 388.667 156.098 388.897C157.029 391.667 158.368 394.278 160.08 396.657C160.222 396.855 160.194 397.128 160.015 397.292C159.788 397.501 159.598 397.695 159.436 397.885C158.257 399.268 157.688 401.026 157.833 402.835C157.979 404.646 158.823 406.292 160.21 407.469C163.073 409.9 167.384 409.553 169.82 406.698C169.983 406.507 170.144 406.289 170.314 406.033C170.406 405.894 170.558 405.817 170.715 405.817ZM184.039 393.519C180.823 393.519 177.591 392.424 174.955 390.187C172.099 387.762 170.361 384.373 170.061 380.644C169.761 376.917 170.934 373.297 173.363 370.45C178.377 364.571 187.252 363.858 193.145 368.86C196.001 371.285 197.739 374.674 198.039 378.403C198.339 382.13 197.166 385.751 194.737 388.598C191.966 391.848 188.014 393.519 184.039 393.519ZM184.06 366.49C180.357 366.49 176.677 368.047 174.095 371.074C171.833 373.726 170.741 377.097 171.02 380.567C171.3 384.04 172.918 387.196 175.578 389.454C181.067 394.114 189.334 393.45 194.006 387.974C196.268 385.323 197.36 381.951 197.08 378.48C196.8 375.008 195.182 371.852 192.522 369.595C190.067 367.51 187.056 366.49 184.06 366.49Z" fill="black"/>
<path d="M487.664 639.385C487.164 636.448 486.8 633.576 486.19 630.665C481.477 608.17 467.677 607.873 467.815 590.11C467.836 587.383 467.938 574.24 478.119 568.216C479.758 567.246 483.995 564.675 488.594 565.865C494.121 567.294 496.707 573.242 499.698 580.402C500.703 582.806 503.493 589.889 505.225 604.896C506.045 611.996 506.288 617.932 506.353 622.086L506.409 626.038C506.409 626.038 494.966 641.747 495.452 652.608C491.255 646.594 488.142 642.711 488.142 642.711L487.664 639.385Z" fill="white"/>
<path d="M487.664 639.866C487.433 639.866 487.23 639.7 487.19 639.466C487.018 638.457 486.863 637.456 486.707 636.458C486.417 634.593 486.117 632.665 485.719 630.765C483.434 619.86 478.983 614.212 475.056 609.228C470.874 603.923 467.262 599.34 467.334 590.107C467.414 579.699 471.157 571.778 477.874 567.803L477.951 567.757C479.603 566.778 483.994 564.178 488.715 565.4C494.586 566.919 497.285 573.378 500.142 580.217C502.635 586.182 504.506 594.467 505.703 604.841C506.364 610.565 506.744 616.365 506.834 622.079C506.839 622.344 506.626 622.563 506.361 622.567C506.104 622.552 505.877 622.36 505.872 622.094C505.783 616.412 505.404 610.644 504.748 604.951C503.561 594.666 501.712 586.469 499.255 580.588C496.492 573.976 493.882 567.73 488.474 566.331C484.139 565.211 480.146 567.575 478.441 568.585L478.364 568.63C471.949 572.427 468.373 580.057 468.296 590.115C468.227 599.01 471.742 603.47 475.811 608.634C479.804 613.7 484.33 619.442 486.661 630.568C487.064 632.493 487.366 634.434 487.658 636.31C487.813 637.304 487.968 638.301 488.139 639.305C488.183 639.567 488.007 639.815 487.745 639.86C487.718 639.864 487.691 639.866 487.664 639.866Z" fill="black"/>
<path d="M496.853 638.572C496.827 638.572 496.8 638.57 496.773 638.566C496.511 638.522 496.334 638.274 496.378 638.012L496.558 636.948C497.153 633.44 497.769 629.813 497.73 625.381C497.674 618.944 495.981 613.503 494.621 609.132C494.455 608.6 494.295 608.086 494.144 607.59C493.23 604.584 492.49 602.687 491.553 600.286C490.89 598.588 490.139 596.664 489.171 593.946C487.073 588.054 485.22 581.959 483.663 575.829C483.598 575.572 483.753 575.311 484.011 575.245C484.27 575.181 484.53 575.335 484.596 575.593C486.145 581.694 487.989 587.76 490.078 593.623C491.041 596.328 491.789 598.245 492.45 599.937C493.394 602.357 494.14 604.269 495.065 607.31C495.215 607.805 495.375 608.317 495.539 608.846C496.918 613.278 498.635 618.794 498.692 625.373C498.732 629.89 498.109 633.56 497.507 637.109L497.327 638.171C497.288 638.406 497.084 638.572 496.853 638.572Z" fill="black"/>
<path d="M489.624 594.266C489.558 594.266 489.49 594.252 489.426 594.222C489.183 594.112 489.077 593.827 489.187 593.585L491.591 588.296C491.701 588.054 491.986 587.947 492.228 588.057C492.469 588.167 492.576 588.452 492.467 588.694L490.063 593.984C489.982 594.161 489.807 594.266 489.624 594.266Z" fill="black"/>
<path d="M493.914 605.762C493.861 605.762 493.808 605.753 493.756 605.736C483.581 602.211 483.586 602.169 483.652 601.658C483.686 601.393 483.924 601.21 484.191 601.242C484.287 601.255 484.372 601.294 484.44 601.351C485.076 601.673 490.642 603.639 494.072 604.827C494.322 604.914 494.455 605.188 494.368 605.438C494.299 605.637 494.113 605.762 493.914 605.762ZM484.61 601.742C484.609 601.752 484.609 601.762 484.607 601.772C484.608 601.762 484.609 601.752 484.61 601.742Z" fill="black"/>
<path d="M497.505 618.701C497.408 618.701 497.309 618.672 497.224 618.61C497.009 618.455 496.96 618.154 497.116 617.939L500.397 613.395C500.553 613.179 500.853 613.131 501.069 613.286C501.284 613.442 501.333 613.742 501.177 613.958L497.896 618.502C497.802 618.632 497.655 618.701 497.505 618.701Z" fill="black"/>
<path d="M497.416 635.198C497.291 635.198 497.166 635.15 497.072 635.053L491.169 629C490.984 628.81 490.987 628.505 491.178 628.32C491.368 628.135 491.672 628.138 491.858 628.329L497.761 634.381C497.946 634.572 497.943 634.876 497.752 635.061C497.659 635.153 497.538 635.198 497.416 635.198Z" fill="black"/>
<path d="M507.121 671.971C507.592 668.472 508.419 664.407 510.202 660.188C520.702 635.343 553.246 631.421 553.84 613.457C553.892 611.873 553.965 607.637 550.741 605.096C546.063 601.41 536.74 603.101 531.679 604.876C531.679 604.876 529.664 605.582 527.985 606.473C521.837 609.733 499.895 626.408 495.309 649.191L494.775 651.712C494.775 651.712 502.603 665.002 504.45 673.852C504.584 674.38 505.282 674.58 505.282 674.58H506.945L507.121 671.971Z" fill="white"/>
<path d="M507.122 672.451C507.1 672.451 507.079 672.45 507.057 672.447C506.793 672.411 506.609 672.169 506.644 671.906C507.255 667.366 508.245 663.583 509.759 660C515.087 647.393 525.978 640.151 535.588 633.762C544.969 627.524 553.071 622.137 553.359 613.44C553.404 612.073 553.542 607.915 550.443 605.473C545.812 601.823 536.248 603.783 531.838 605.328C531.818 605.335 529.837 606.034 528.21 606.897C522.902 609.712 500.447 626.103 495.78 649.285C495.728 649.545 495.473 649.714 495.214 649.662C494.953 649.609 494.785 649.355 494.837 649.095C499.578 625.546 522.371 608.904 527.759 606.047C529.452 605.149 531.436 604.45 531.519 604.421C536.441 602.696 546.089 600.817 551.038 604.718C554.519 607.461 554.369 611.985 554.32 613.472C554.016 622.664 545.723 628.178 536.12 634.563C526.624 640.877 515.86 648.034 510.645 660.375C509.165 663.876 508.196 667.582 507.597 672.035C507.565 672.276 507.359 672.451 507.122 672.451Z" fill="black"/>
<path d="M500.728 659.482C500.682 659.482 500.635 659.475 500.588 659.461C500.334 659.384 500.19 659.116 500.267 658.862C506.483 638.281 520.058 621.553 538.491 611.759C538.821 611.583 539.133 611.418 539.229 611.355C539.38 611.205 539.618 611.168 539.811 611.281C540.04 611.415 540.118 611.71 539.984 611.939C539.885 612.107 539.778 612.164 538.943 612.608C520.738 622.281 507.33 638.806 501.188 659.14C501.125 659.348 500.934 659.482 500.728 659.482ZM539.154 611.452C539.153 611.453 539.153 611.453 539.153 611.453C539.153 611.453 539.153 611.453 539.154 611.452Z" fill="black"/>
<path d="M533.559 623.786C533.54 623.786 533.521 623.785 533.503 623.783L524.105 622.701C523.841 622.671 523.651 622.432 523.681 622.168C523.712 621.904 523.955 621.715 524.214 621.745L533.613 622.827C533.877 622.857 534.066 623.096 534.036 623.36C534.007 623.605 533.799 623.786 533.559 623.786Z" fill="black"/>
<path d="M515.51 631.624C515.265 631.624 515.055 631.438 515.032 631.188L514.189 622.268C514.164 622.004 514.358 621.769 514.622 621.744C514.891 621.709 515.121 621.913 515.147 622.178L515.99 631.098C516.015 631.362 515.821 631.597 515.556 631.622C515.54 631.624 515.525 631.624 515.51 631.624Z" fill="black"/>
<path d="M504.374 649.659C504.183 649.659 504.003 649.546 503.927 649.358C503.828 649.112 503.948 648.831 504.194 648.732L509.336 646.664C509.583 646.565 509.863 646.684 509.962 646.93C510.061 647.176 509.942 647.457 509.695 647.556L504.554 649.624C504.494 649.648 504.434 649.659 504.374 649.659Z" fill="black"/>
<path d="M450.429 626.557C451.151 626.144 454.446 624.387 461.314 625.735C475.298 628.478 486.281 640.597 487.34 641.79C505.125 661.843 508.335 687.615 504.673 688.765C503.841 689.026 500.741 685.783 494.575 679.287C479.388 663.286 479.595 663.44 478.479 662.305C460.829 644.36 444.864 642.315 445.655 633.458C445.92 630.49 448.166 627.853 450.429 626.557Z" fill="white"/>
<path d="M504.575 689.26C503.487 689.26 501.44 687.218 494.226 679.618C485.408 670.328 481.779 666.483 480.068 664.67C478.837 663.365 478.602 663.116 478.136 662.642C470.039 654.411 462.458 649.641 456.366 645.808C449.355 641.397 444.724 638.483 445.176 633.415C445.462 630.208 447.9 627.45 450.19 626.14C451.393 625.451 454.897 623.986 461.407 625.263C475.431 628.015 486.486 640.102 487.7 641.471C503.08 658.813 507.961 680.922 506.159 687.421C505.88 688.426 505.429 689.032 504.818 689.224C504.741 689.248 504.661 689.26 504.575 689.26ZM456.539 625.717C453.316 625.717 451.455 626.524 450.668 626.975C448.596 628.161 446.39 630.639 446.135 633.501C445.734 637.983 449.929 640.621 456.879 644.994C462.689 648.65 470.647 653.657 478.822 661.968C479.292 662.446 479.528 662.696 480.768 664.01C482.479 665.823 486.107 669.667 494.925 678.957C499.856 684.153 503.752 688.256 504.572 688.299C504.798 688.222 505.053 687.806 505.231 687.164C506.778 681.589 502.434 659.534 486.98 642.11C485.788 640.765 474.936 628.898 461.222 626.207C459.418 625.853 457.863 625.717 456.539 625.717Z" fill="black"/>
<path d="M499.804 676.282C499.611 676.282 499.429 676.165 499.355 675.974C495.179 665.128 486.384 650.092 468.201 640.052C463.637 637.532 458.684 635.457 453.481 633.883C453.226 633.806 453.082 633.538 453.159 633.284C453.236 633.028 453.505 632.885 453.759 632.962C459.027 634.555 464.043 636.657 468.666 639.21C487.103 649.389 496.02 664.633 500.253 675.629C500.349 675.877 500.225 676.155 499.977 676.25C499.92 676.272 499.862 676.282 499.804 676.282Z" fill="black"/>
<path d="M465.482 638.571C465.254 638.571 465.052 638.409 465.009 638.177C464.843 637.273 464.013 632.734 464.013 632.209C464.013 631.944 464.229 631.729 464.494 631.729C464.76 631.729 464.975 631.944 464.975 632.209C464.98 632.534 465.484 635.436 465.955 638.003C466.003 638.264 465.831 638.515 465.569 638.563C465.54 638.568 465.511 638.571 465.482 638.571Z" fill="black"/>
<path d="M468.351 645.646C468.09 645.646 467.875 645.438 467.87 645.175C467.864 644.91 468.075 644.69 468.341 644.684L476.702 644.51C476.971 644.501 477.188 644.715 477.193 644.981C477.199 645.246 476.988 645.466 476.722 645.472L468.361 645.646C468.358 645.646 468.354 645.646 468.351 645.646Z" fill="black"/>
<path d="M487.04 655.064C486.774 655.064 486.559 654.849 486.559 654.583V648.834C486.559 648.569 486.774 648.354 487.04 648.354C487.305 648.354 487.521 648.569 487.521 648.834V654.583C487.521 654.849 487.305 655.064 487.04 655.064Z" fill="black"/>
<path d="M493.715 664.069C493.676 664.069 493.637 664.065 493.597 664.055L488.406 662.754C488.148 662.69 487.992 662.429 488.056 662.171C488.121 661.913 488.383 661.756 488.64 661.821L493.831 663.122C494.089 663.186 494.246 663.447 494.181 663.705C494.127 663.924 493.93 664.069 493.715 664.069Z" fill="black"/>
<path d="M522.237 674.578H479.258V711.353H522.237V674.578Z" fill="white"/>
<path d="M522.237 711.835H479.258C478.992 711.835 478.777 711.619 478.777 711.354V674.579C478.777 674.313 478.992 674.098 479.258 674.098H522.237C522.503 674.098 522.718 674.313 522.718 674.579V711.354C522.718 711.619 522.503 711.835 522.237 711.835ZM479.739 710.873H521.756V675.059H479.739V710.873Z" fill="#AEAEAD"/>
<path d="M708.585 676.285H642.148C641.882 676.285 641.667 676.07 641.667 675.804C641.667 675.538 641.882 675.323 642.148 675.323H708.104V534.19C708.104 533.924 708.319 533.709 708.585 533.709C708.851 533.709 709.066 533.924 709.066 534.19V675.804C709.066 676.07 708.851 676.285 708.585 676.285Z" fill="black"/>
<path d="M620.27 675.803C620.27 672.194 623.204 669.268 626.824 669.268C630.444 669.268 633.379 672.194 633.379 675.803C633.379 679.413 630.444 682.339 626.824 682.339C623.204 682.339 620.27 679.413 620.27 675.803Z" fill="#7F7F7F"/>
<path d="M607.696 682.339C611.316 682.339 614.251 679.413 614.251 675.803C614.251 672.194 611.316 669.268 607.696 669.268C604.076 669.268 601.142 672.194 601.142 675.803C601.142 679.413 604.076 682.339 607.696 682.339Z" fill="#7F7F7F"/>
<path d="M588.568 682.339C592.188 682.339 595.122 679.413 595.122 675.803C595.122 672.194 592.188 669.268 588.568 669.268C584.948 669.268 582.013 672.194 582.013 675.803C582.013 679.413 584.948 682.339 588.568 682.339Z" fill="#7F7F7F"/>
<path d="M417.888 580.75C438.145 580.75 454.566 564.369 454.566 544.16C454.566 523.952 438.145 507.57 417.888 507.57C397.631 507.57 381.209 523.952 381.209 544.16C381.209 564.369 397.631 580.75 417.888 580.75Z" fill="#7F7F7F"/>
<path d="M414.072 563.849C414.005 563.849 413.936 563.848 413.868 563.845C412.081 563.78 410.434 562.861 409.442 561.377L399.059 545.84C397.354 543.289 398.044 539.842 400.602 538.141C403.157 536.437 406.615 537.129 408.32 539.681L414.422 548.811L431.746 526.612C433.634 524.191 437.13 523.76 439.556 525.642C441.981 527.525 442.416 531.014 440.528 533.434L418.464 561.708C417.407 563.061 415.785 563.849 414.072 563.849Z" fill="white"/>
<path d="M502.766 547.686H461.29C461.025 547.686 460.809 547.471 460.809 547.206C460.809 546.94 461.025 546.725 461.29 546.725H502.285V504.524C502.285 504.258 502.501 504.043 502.766 504.043C503.032 504.043 503.247 504.258 503.247 504.524V547.206C503.247 547.471 503.032 547.686 502.766 547.686Z" fill="black"/>
</g>
<defs>
<clipPath id="clip0_48_5525">
<rect width="746" height="546" fill="white" transform="translate(66 239)"/>
</clipPath>
</defs>
</svg>
