<svg width="33" height="33" viewBox="0 0 33 33" fill="none" xmlns="http://www.w3.org/2000/svg">
<path d="M27.468 27.4674C28.1753 27.4674 28.8535 27.1865 29.3536 26.6864C29.8537 26.1863 30.1347 25.508 30.1347 24.8008V11.4674C30.1347 10.7602 29.8537 10.0819 29.3536 9.58183C28.8535 9.08173 28.1753 8.80078 27.468 8.80078H16.9347C16.4887 8.80515 16.0487 8.6976 15.6551 8.48795C15.2614 8.27831 14.9266 7.97328 14.6814 7.60078L13.6014 6.00078C13.3585 5.63207 13.028 5.32942 12.6393 5.11998C12.2507 4.91053 11.8162 4.80085 11.3747 4.80078H6.13468C5.42744 4.80078 4.74916 5.08173 4.24907 5.58183C3.74897 6.08193 3.46802 6.7602 3.46802 7.46745V24.8008C3.46802 25.508 3.74897 26.1863 4.24907 26.6864C4.74916 27.1865 5.42744 27.4674 6.13468 27.4674H27.468Z" stroke="#4B371C" stroke-width="2.66667" stroke-linecap="round" stroke-linejoin="round"/>
</svg>
