<svg width="35" height="43" viewBox="0 0 35 43" fill="none" xmlns="http://www.w3.org/2000/svg">
<path d="M14.2118 26.9624C14.2118 23.8237 17.1566 21.2793 20.7892 21.2793C20.8183 21.2793 20.8418 21.2997 20.8418 21.3248V41.0726C20.8418 41.6998 20.8418 42.0135 20.6475 42.2084C20.4534 42.4032 20.1408 42.4032 19.5157 42.4032H15.5377C14.9127 42.4032 14.6002 42.4032 14.4059 42.2084C14.2118 42.0135 14.2118 41.6998 14.2118 41.0726V26.9624Z" fill="#4B371C"/>
<path d="M17.5267 19.618C19.3576 19.618 20.8418 18.1287 20.8418 16.2914C20.8418 14.4543 19.3576 12.9648 17.5267 12.9648C15.696 12.9648 14.2118 14.4543 14.2118 16.2914C14.2118 18.1287 15.696 19.618 17.5267 19.618Z" fill="#4B371C"/>
<path d="M0.626709 13.6302V39.9103V41.74C0.626709 42.1074 0.923551 42.4053 1.28968 42.4053H3.11297H7.49445C7.86068 42.4053 8.15752 42.1074 8.15752 41.74V38.0807C8.15752 37.7133 7.86068 37.4154 7.49445 37.4154H6.2622C5.89597 37.4154 5.59913 37.1175 5.59913 36.7501V13.6302C5.59913 13.2628 5.30239 12.9648 4.93616 12.9648H1.28968C0.923551 12.9648 0.626709 13.2628 0.626709 13.6302Z" fill="#B978B2"/>
<path d="M15.4217 0.824219C15.7878 0.824219 16.0846 1.12211 16.0846 1.48954V5.14879C16.0846 5.51623 15.7878 5.81411 15.4217 5.81411H6.2622C5.89597 5.81411 5.59913 6.112 5.59913 6.47943V8.97443C5.59913 9.34186 5.30239 9.63975 4.93616 9.63975H1.28968C0.923551 9.63975 0.626709 9.34186 0.626709 8.97443V3.31922V1.48954C0.626709 1.12211 0.923551 0.824219 1.28968 0.824219H3.11297H15.4217Z" fill="#70CBCF"/>
<path d="M34.4271 8.97443V3.31922V1.48954C34.4271 1.12211 34.1302 0.824219 33.7641 0.824219H31.9408H19.6321C19.266 0.824219 18.9691 1.12211 18.9691 1.48954V5.14879C18.9691 5.51623 19.266 5.81411 19.6321 5.81411H28.7916C29.1577 5.81411 29.4545 6.112 29.4545 6.47943V8.97443C29.4545 9.34186 29.7515 9.63975 30.1176 9.63975H33.7641C34.1302 9.63975 34.4271 9.34186 34.4271 8.97443Z" fill="#E7E62A"/>
<path fill-rule="evenodd" clip-rule="evenodd" d="M26.8953 41.74C26.8953 42.1074 27.1921 42.4053 27.5582 42.4053H31.9398H33.7631C34.1292 42.4053 34.4261 42.1074 34.4261 41.74V39.9103V13.6302C34.4261 13.2628 34.1292 12.9648 33.7631 12.9648H30.1166C29.7504 12.9648 29.4536 13.2628 29.4536 13.6302V36.7501C29.4536 37.1175 29.1567 37.4154 28.7906 37.4154H27.5582C27.1921 37.4154 26.8953 37.7133 26.8953 38.0807V41.74Z" fill="#E46356"/>
</svg>
