<svg width="239" height="80" viewBox="0 0 239 80" fill="none" xmlns="http://www.w3.org/2000/svg">
<path d="M79.2775 30.4071H83.2277V42.622C83.0656 42.6625 82.8124 42.713 82.468 42.7735C82.1236 42.8342 81.7692 42.8645 81.4044 42.8645C80.6347 42.8645 80.0878 42.723 79.7637 42.4401C79.4396 42.1573 79.2775 41.6824 79.2775 41.0155V30.4071ZM83.2277 35.0142H79.2775V24.2541C79.4598 24.2137 79.7232 24.1632 80.0676 24.1026C80.4119 24.0419 80.7563 24.0117 81.1007 24.0117C81.8502 24.0117 82.387 24.1431 82.7111 24.4057C83.0555 24.6684 83.2277 25.1533 83.2277 25.8606V35.0142Z" fill="#4B371C"/>
<path d="M89.1278 28.4976L92.6525 28.4066C92.7335 29.1946 92.7943 30.013 92.8348 30.8617C92.8754 31.7105 92.9057 32.549 92.926 33.3775C92.9462 34.206 92.9564 35.0041 92.9564 35.772V42.622C92.7943 42.6625 92.5411 42.713 92.1967 42.7735C91.8726 42.8342 91.5282 42.8645 91.1636 42.8645C90.4343 42.8645 89.9077 42.7332 89.5836 42.4705C89.2797 42.1876 89.1278 41.7228 89.1278 41.0762V28.4976ZM104.807 38.3483L101.282 38.4392C101.12 36.8834 101.029 35.3678 101.008 33.8927C100.988 32.4177 100.978 31.0133 100.978 29.6797V24.2239C101.14 24.1834 101.383 24.1431 101.707 24.1026C102.052 24.0419 102.396 24.0117 102.74 24.0117C103.49 24.0117 104.017 24.1431 104.32 24.4057C104.645 24.6684 104.807 25.1332 104.807 25.8V38.3483ZM104.807 37.0449V35.0142V42.1673C104.584 42.3695 104.26 42.5311 103.834 42.6523C103.429 42.7938 102.943 42.8645 102.376 42.8645C101.768 42.8645 101.201 42.7635 100.674 42.5613C100.168 42.3391 99.7323 41.8946 99.3677 41.2277L95.0529 33.3775C94.7896 32.8926 94.5262 32.3974 94.2629 31.8923C93.9996 31.3871 93.7464 30.8921 93.5033 30.4071C93.2603 29.9019 93.0476 29.427 92.8652 28.9825L89.1278 29.8312V24.921C89.3506 24.6381 89.6848 24.4158 90.1306 24.2541C90.5762 24.0926 91.0523 24.0117 91.5586 24.0117C92.1866 24.0117 92.7538 24.1228 93.2603 24.3451C93.7869 24.5673 94.2224 25.012 94.5668 25.6787L98.9423 33.529C99.2056 33.9938 99.4589 34.4889 99.7019 35.0142C99.9652 35.5194 100.218 36.0245 100.462 36.5297C100.705 37.0147 100.917 37.4794 101.1 37.924L104.807 37.0449Z" fill="#4B371C"/>
<path d="M114.588 35.1352L110.699 35.1049V26.3757C110.699 25.729 110.881 25.2138 111.246 24.8298C111.631 24.4459 112.147 24.2539 112.796 24.2539C113.16 24.2539 113.515 24.2842 113.859 24.3449C114.203 24.4055 114.447 24.4661 114.588 24.5267V35.1352ZM112.765 35.4384V32.2861H121.85C121.952 32.4477 122.043 32.6599 122.124 32.9226C122.225 33.1853 122.276 33.4783 122.276 33.8016C122.276 34.3472 122.144 34.7614 121.881 35.0444C121.638 35.307 121.303 35.4384 120.878 35.4384H112.765ZM112.796 27.4668V24.2539H122.914C123.015 24.4156 123.106 24.6379 123.187 24.9208C123.268 25.1835 123.309 25.4765 123.309 25.7998C123.309 26.3454 123.177 26.7596 122.914 27.0424C122.671 27.3253 122.337 27.4668 121.911 27.4668H112.796ZM110.699 32.862H114.649V42.6218C114.487 42.6623 114.234 42.7128 113.889 42.7733C113.545 42.834 113.191 42.8643 112.826 42.8643C112.056 42.8643 111.509 42.7228 111.185 42.4399C110.861 42.1571 110.699 41.6822 110.699 41.0153V32.862Z" fill="#4B371C"/>
<path d="M127.849 30.5284H131.799V42.4401L129.945 42.713C129.318 42.713 128.811 42.521 128.426 42.1371C128.042 41.7531 127.849 41.2379 127.849 40.5912V30.5284ZM129.945 42.713V39.4697H139.608C139.73 39.6112 139.83 39.8234 139.912 40.1063C140.013 40.3892 140.063 40.6923 140.063 41.0155C140.063 41.5612 139.932 41.9855 139.669 42.2886C139.425 42.5715 139.081 42.713 138.635 42.713H129.945ZM131.799 35.0446H127.849V24.2541C128.011 24.2137 128.264 24.1632 128.608 24.1026C128.974 24.0419 129.327 24.0117 129.672 24.0117C130.402 24.0117 130.938 24.1431 131.282 24.4057C131.627 24.6684 131.799 25.1533 131.799 25.8606V35.0446Z" fill="#4B371C"/>
<path d="M144.464 30.3462H148.323V42.4399C148.162 42.4804 147.918 42.5409 147.594 42.6218C147.27 42.6824 146.926 42.7128 146.562 42.7128C145.913 42.7128 145.397 42.5208 145.012 42.1369C144.647 41.7529 144.464 41.2377 144.464 40.591V30.3462ZM148.323 36.4992H144.464V26.3757C144.464 25.729 144.647 25.2138 145.012 24.8298C145.397 24.4459 145.913 24.2539 146.562 24.2539C146.926 24.2539 147.27 24.2842 147.594 24.3449C147.918 24.4055 148.162 24.4661 148.323 24.5267V36.4992ZM146.562 34.8322V31.6799H155.738C155.838 31.8416 155.93 32.0537 156.011 32.3164C156.092 32.579 156.132 32.8721 156.132 33.1954C156.132 33.741 156.011 34.1552 155.768 34.4381C155.525 34.7008 155.18 34.8322 154.736 34.8322H146.562ZM146.562 42.7128V39.5302H156.741C156.861 39.6919 156.963 39.9141 157.044 40.1969C157.126 40.4596 157.166 40.7527 157.166 41.076C157.166 41.6215 157.044 42.0358 156.802 42.3187C156.558 42.5814 156.214 42.7128 155.768 42.7128H146.562ZM146.562 27.4061V24.2539H156.619C156.72 24.4156 156.811 24.6278 156.892 24.8904C156.994 25.1531 157.044 25.4461 157.044 25.7695C157.044 26.315 156.913 26.7292 156.649 27.0121C156.406 27.2748 156.072 27.4061 155.646 27.4061H146.562Z" fill="#4B371C"/>
<path d="M175.888 26.6181C175.888 27.0021 175.777 27.3557 175.555 27.679C175.331 27.9821 175.078 28.2145 174.795 28.3761C174.288 28.0124 173.701 27.6892 173.032 27.4062C172.384 27.1233 171.584 26.9819 170.631 26.9819C169.497 26.9819 168.505 27.2345 167.655 27.7397C166.824 28.2447 166.166 28.9823 165.679 29.9522C165.213 30.9019 164.98 32.074 164.98 33.4683C164.98 35.5899 165.507 37.1964 166.56 38.2875C167.614 39.3584 169.031 39.8939 170.814 39.8939C171.746 39.8939 172.546 39.7626 173.215 39.4999C173.903 39.2372 174.512 38.9442 175.037 38.6209C175.322 38.8028 175.555 39.0452 175.736 39.3484C175.919 39.6514 176.01 40.0151 176.01 40.4395C176.01 40.7628 175.919 41.076 175.736 41.3791C175.555 41.6621 175.25 41.9146 174.825 42.1369C174.42 42.3793 173.842 42.6016 173.093 42.8037C172.364 43.026 171.452 43.1372 170.359 43.1372C168.596 43.1372 166.996 42.7835 165.557 42.0763C164.139 41.369 163.005 40.3081 162.154 38.8937C161.324 37.4591 160.909 35.6506 160.909 33.4683C160.909 31.3668 161.324 29.5987 162.154 28.164C163.005 26.7091 164.129 25.6179 165.528 24.8905C166.925 24.1429 168.465 23.769 170.146 23.769C171.321 23.769 172.333 23.9004 173.184 24.1631C174.055 24.4258 174.724 24.7793 175.189 25.2238C175.655 25.6482 175.888 26.113 175.888 26.6181Z" fill="#4B371C"/>
<path d="M185.514 27.4668L185.453 24.2539H194.113C194.214 24.4156 194.306 24.6379 194.387 24.9208C194.487 25.1835 194.539 25.4765 194.539 25.7998C194.539 26.3454 194.407 26.7596 194.143 27.0424C193.9 27.3253 193.556 27.4668 193.111 27.4668H185.514ZM188.461 24.2539L188.553 27.4668H179.862C179.761 27.3051 179.66 27.0829 179.558 26.7999C179.477 26.5171 179.436 26.2241 179.436 25.921C179.436 25.3552 179.558 24.941 179.802 24.6783C180.065 24.3954 180.42 24.2539 180.865 24.2539H188.461ZM184.967 26.6484H188.917V42.6218C188.755 42.6623 188.501 42.7128 188.157 42.7733C187.813 42.834 187.458 42.8643 187.094 42.8643C186.344 42.8643 185.797 42.7228 185.453 42.4399C185.129 42.1571 184.967 41.6822 184.967 41.0153V26.6484Z" fill="#4B371C"/>
<path d="M215.433 33.4379C215.433 35.5394 215.028 37.3176 214.218 38.7725C213.408 40.2071 212.303 41.2984 210.907 42.0459C209.529 42.7733 207.958 43.1372 206.196 43.1372C204.434 43.1372 202.853 42.7733 201.456 42.0459C200.058 41.2984 198.954 40.2071 198.144 38.7725C197.354 37.3176 196.96 35.5394 196.96 33.4379C196.96 31.3364 197.365 29.5683 198.175 28.1337C199.006 26.699 200.109 25.6179 201.486 24.8905C202.884 24.1429 204.455 23.769 206.196 23.769C207.918 23.769 209.477 24.1429 210.875 24.8905C212.274 25.6179 213.378 26.699 214.188 28.1337C215.019 29.5683 215.433 31.3364 215.433 33.4379ZM211.362 33.4379C211.362 31.3566 210.896 29.7603 209.964 28.6489C209.033 27.5375 207.777 26.9819 206.196 26.9819C204.636 26.9819 203.38 27.5375 202.428 28.6489C201.497 29.7401 201.031 31.3364 201.031 33.4379C201.031 35.5394 201.497 37.1459 202.428 38.2572C203.38 39.3484 204.636 39.8939 206.196 39.8939C207.777 39.8939 209.033 39.3484 209.964 38.2572C210.896 37.1459 211.362 35.5394 211.362 33.4379Z" fill="#4B371C"/>
<path d="M80.867 51.1934L80.8511 50.3555H83.1098C83.1362 50.3976 83.16 50.4555 83.1811 50.5293C83.2075 50.5979 83.2208 50.6743 83.2208 50.7586C83.2208 50.9009 83.1864 51.009 83.1178 51.0828C83.0543 51.1565 82.9646 51.1934 82.8483 51.1934H80.867ZM81.6358 50.3555L81.6595 51.1934H79.3929C79.3665 51.1513 79.3401 51.0933 79.3136 51.0195C79.2925 50.9457 79.282 50.8693 79.282 50.7902C79.282 50.6426 79.3136 50.5347 79.3771 50.4662C79.4458 50.3924 79.5382 50.3555 79.6545 50.3555H81.6358ZM80.7243 50.9799H81.7547V55.1463C81.7124 55.1568 81.6463 55.1699 81.5565 55.1858C81.4667 55.2016 81.3742 55.2094 81.2792 55.2094C81.0837 55.2094 80.941 55.1725 80.8511 55.0988C80.7666 55.025 80.7243 54.9011 80.7243 54.7272V50.9799Z" fill="#4B371C"/>
<path d="M91.0408 51.9445H92.047V55.0987C92.004 55.1094 91.9406 55.1251 91.857 55.1463C91.7721 55.162 91.6825 55.1699 91.5869 55.1699C91.4184 55.1699 91.2834 55.1199 91.183 55.0197C91.0874 54.9196 91.0408 54.7852 91.0408 54.6166V51.9445ZM92.047 53.5493H91.0408V50.9088C91.0408 50.7402 91.0874 50.6057 91.183 50.5057C91.2834 50.4055 91.4184 50.3555 91.5869 50.3555C91.6825 50.3555 91.7721 50.3633 91.857 50.3791C91.9406 50.395 92.004 50.4108 92.047 50.4266V53.5493ZM91.5869 53.1145V52.2923H93.9805C94.0068 52.3345 94.0307 52.3899 94.0522 52.4583C94.0725 52.5268 94.0833 52.6032 94.0833 52.6876C94.0833 52.8299 94.0522 52.9379 93.9889 53.0117C93.9255 53.0802 93.8347 53.1145 93.7188 53.1145H91.5869ZM91.5869 55.1699V54.3398H94.2422C94.2733 54.382 94.3008 54.44 94.3211 54.5138C94.3426 54.5823 94.3533 54.6587 94.3533 54.743C94.3533 54.8854 94.3211 54.9934 94.2577 55.0671C94.1944 55.1356 94.1048 55.1699 93.9889 55.1699H91.5869ZM91.5869 51.1777V50.3555H94.2099C94.2362 50.3976 94.2601 50.4529 94.2816 50.5214C94.3079 50.59 94.3211 50.6664 94.3211 50.7507C94.3211 50.893 94.2864 51.0011 94.2183 51.0749C94.155 51.1434 94.0677 51.1777 93.9566 51.1777H91.5869Z" fill="#4B371C"/>
<path d="M106.897 50.9722C106.897 51.0723 106.869 51.1645 106.81 51.2488C106.753 51.328 106.686 51.3885 106.613 51.4307C106.48 51.3359 106.327 51.2514 106.153 51.1778C105.983 51.104 105.775 51.0671 105.527 51.0671C105.23 51.0671 104.972 51.1329 104.75 51.2647C104.534 51.3964 104.361 51.5888 104.235 51.8418C104.113 52.0895 104.052 52.3952 104.052 52.7588C104.052 53.3122 104.189 53.7312 104.464 54.0159C104.739 54.2951 105.11 54.4349 105.574 54.4349C105.817 54.4349 106.026 54.4006 106.201 54.332C106.38 54.2635 106.539 54.1871 106.676 54.1028C106.749 54.1502 106.81 54.2135 106.858 54.2925C106.906 54.3716 106.93 54.4665 106.93 54.5772C106.93 54.6615 106.906 54.7432 106.858 54.8222C106.81 54.896 106.731 54.9619 106.62 55.0198C106.515 55.0831 106.364 55.141 106.168 55.1938C105.978 55.2517 105.741 55.2807 105.455 55.2807C104.996 55.2807 104.578 55.1885 104.203 55.004C103.833 54.8196 103.537 54.5429 103.316 54.174C103.098 53.7997 102.991 53.328 102.991 52.7588C102.991 52.2107 103.098 51.7496 103.316 51.3754C103.537 50.9959 103.831 50.7113 104.195 50.5215C104.56 50.3266 104.961 50.229 105.4 50.229C105.706 50.229 105.97 50.2633 106.192 50.3318C106.419 50.4003 106.594 50.4925 106.716 50.6085C106.836 50.7192 106.897 50.8405 106.897 50.9722Z" fill="#4B371C"/>
<path d="M114.941 51.9601H115.972V55.1461C115.924 55.1566 115.855 55.1697 115.765 55.1856C115.681 55.2014 115.591 55.2092 115.496 55.2092C115.296 55.2092 115.152 55.1724 115.069 55.0986C114.984 55.0248 114.941 54.9009 114.941 54.727V51.9601ZM115.972 53.1696H114.941V50.3553C114.984 50.3448 115.05 50.3315 115.139 50.3158C115.235 50.2999 115.327 50.292 115.416 50.292C115.606 50.292 115.747 50.3263 115.837 50.3948C115.927 50.4633 115.972 50.5898 115.972 50.7743V53.1696ZM117.945 51.9601H118.983V55.1461C118.936 55.1566 118.866 55.1697 118.777 55.1856C118.693 55.2014 118.6 55.2092 118.5 55.2092C118.305 55.2092 118.161 55.1724 118.072 55.0986C117.987 55.0248 117.945 54.9009 117.945 54.727V51.9601ZM118.983 53.1696H117.945V50.3553C117.993 50.3448 118.061 50.3315 118.151 50.3158C118.246 50.2999 118.338 50.292 118.428 50.292C118.619 50.292 118.759 50.3289 118.848 50.4027C118.938 50.4712 118.983 50.5977 118.983 50.7821V53.1696ZM118.532 53.1538H115.433V52.3238H118.532V53.1538Z" fill="#4B371C"/>
<path d="M126.891 51.462L127.811 51.4383C127.831 51.6439 127.848 51.8574 127.858 52.0786C127.868 52.3 127.877 52.5187 127.881 52.7349C127.887 52.9509 127.89 53.1591 127.89 53.3593V55.1461C127.848 55.1566 127.781 55.1697 127.691 55.1856C127.607 55.2014 127.517 55.2092 127.423 55.2092C127.231 55.2092 127.094 55.175 127.01 55.1066C126.93 55.0328 126.891 54.9115 126.891 54.7429V51.462ZM130.98 54.0313L130.061 54.0551C130.019 53.6492 129.995 53.254 129.989 52.8692C129.985 52.4845 129.982 52.1181 129.982 51.7703V50.3474C130.024 50.3368 130.087 50.3263 130.172 50.3158C130.262 50.2999 130.352 50.292 130.441 50.292C130.637 50.292 130.775 50.3263 130.853 50.3948C130.938 50.4633 130.98 50.5845 130.98 50.7584V54.0313ZM130.98 53.6914V53.1617V55.0274C130.923 55.0802 130.838 55.1223 130.727 55.154C130.622 55.1909 130.495 55.2092 130.347 55.2092C130.188 55.2092 130.04 55.183 129.902 55.1302C129.771 55.0723 129.657 54.9563 129.562 54.7824L128.437 52.7349C128.368 52.6083 128.3 52.4792 128.23 52.3475C128.162 52.2157 128.095 52.0866 128.032 51.9601C127.969 51.8283 127.914 51.7044 127.866 51.5885L126.891 51.8098V50.5291C126.949 50.4553 127.037 50.3974 127.153 50.3553C127.268 50.3131 127.393 50.292 127.525 50.292C127.689 50.292 127.837 50.321 127.969 50.3789C128.106 50.4369 128.22 50.5529 128.309 50.7269L129.451 52.7744C129.52 52.8956 129.586 53.0246 129.649 53.1617C129.718 53.2935 129.784 53.4252 129.847 53.5571C129.911 53.6835 129.966 53.8047 130.013 53.9206L130.98 53.6914Z" fill="#4B371C"/>
<path d="M143.659 52.7509C143.659 53.2991 143.553 53.7629 143.342 54.1423C143.131 54.5165 142.843 54.8011 142.478 54.9962C142.119 55.1859 141.709 55.2807 141.25 55.2807C140.79 55.2807 140.378 55.1859 140.013 54.9962C139.649 54.8011 139.361 54.5165 139.149 54.1423C138.944 53.7629 138.841 53.2991 138.841 52.7509C138.841 52.2029 138.946 51.7416 139.157 51.3675C139.374 50.9933 139.662 50.7113 140.021 50.5215C140.386 50.3266 140.795 50.229 141.25 50.229C141.699 50.229 142.106 50.3266 142.47 50.5215C142.835 50.7113 143.122 50.9933 143.334 51.3675C143.55 51.7416 143.659 52.2029 143.659 52.7509ZM142.597 52.7509C142.597 52.2081 142.475 51.7917 142.232 51.5018C141.99 51.2119 141.662 51.0671 141.25 51.0671C140.842 51.0671 140.515 51.2119 140.266 51.5018C140.024 51.7865 139.902 52.2029 139.902 52.7509C139.902 53.2991 140.024 53.7181 140.266 54.0079C140.515 54.2925 140.842 54.4349 141.25 54.4349C141.662 54.4349 141.99 54.2925 142.232 54.0079C142.475 53.7181 142.597 53.2991 142.597 52.7509Z" fill="#4B371C"/>
<path d="M151.986 51.9917H153.016V55.0986L152.532 55.1697C152.368 55.1697 152.237 55.1197 152.136 55.0195C152.036 54.9195 151.986 54.785 151.986 54.6164V51.9917ZM152.532 55.1697V54.3239H155.052C155.084 54.3608 155.111 54.4161 155.131 54.4898C155.159 54.5636 155.172 54.6427 155.172 54.727C155.172 54.8693 155.137 54.98 155.068 55.059C155.004 55.1328 154.915 55.1697 154.799 55.1697H152.532ZM153.016 53.1696H151.986V50.3553C152.028 50.3448 152.093 50.3315 152.183 50.3158C152.279 50.2999 152.371 50.292 152.46 50.292C152.651 50.292 152.791 50.3263 152.881 50.3948C152.97 50.4633 153.016 50.5898 153.016 50.7743V53.1696Z" fill="#4B371C"/>
<path d="M168.755 52.7509C168.755 53.2991 168.649 53.7629 168.437 54.1423C168.227 54.5165 167.939 54.8011 167.575 54.9962C167.215 55.1859 166.805 55.2807 166.346 55.2807C165.886 55.2807 165.474 55.1859 165.109 54.9962C164.745 54.8011 164.457 54.5165 164.245 54.1423C164.04 53.7629 163.936 53.2991 163.936 52.7509C163.936 52.2029 164.042 51.7416 164.254 51.3675C164.47 50.9933 164.758 50.7113 165.118 50.5215C165.482 50.3266 165.891 50.229 166.346 50.229C166.794 50.229 167.202 50.3266 167.566 50.5215C167.931 50.7113 168.219 50.9933 168.43 51.3675C168.647 51.7416 168.755 52.2029 168.755 52.7509ZM167.693 52.7509C167.693 52.2081 167.571 51.7917 167.328 51.5018C167.086 51.2119 166.757 51.0671 166.346 51.0671C165.939 51.0671 165.611 51.2119 165.363 51.5018C165.12 51.7865 164.998 52.2029 164.998 52.7509C164.998 53.2991 165.12 53.7181 165.363 54.0079C165.611 54.2925 165.939 54.4349 166.346 54.4349C166.757 54.4349 167.086 54.2925 167.328 54.0079C167.571 53.7181 167.693 53.2991 167.693 52.7509Z" fill="#4B371C"/>
<path d="M181.432 52.8221V54.4901C181.432 54.622 181.402 54.7246 181.345 54.7984C181.286 54.867 181.199 54.9329 181.083 54.9962C180.939 55.0752 180.739 55.141 180.481 55.1938C180.221 55.2517 179.962 55.2807 179.704 55.2807C179.207 55.2807 178.757 55.1938 178.356 55.0198C177.96 54.8406 177.648 54.5666 177.421 54.1976C177.194 53.8235 177.081 53.3465 177.081 52.7668C177.081 52.2081 177.197 51.7416 177.429 51.3675C177.662 50.988 177.973 50.7034 178.364 50.5137C178.755 50.3239 179.189 50.229 179.664 50.229C179.981 50.229 180.258 50.2633 180.496 50.3318C180.734 50.3951 180.916 50.4846 181.043 50.6006C181.175 50.7113 181.241 50.8378 181.241 50.98C181.241 51.0802 181.212 51.1698 181.153 51.2488C181.101 51.328 181.035 51.3885 180.956 51.4307C180.824 51.3464 180.657 51.2647 180.457 51.1857C180.256 51.1066 180.016 51.0671 179.735 51.0671C179.429 51.0671 179.154 51.1355 178.912 51.2726C178.674 51.4044 178.486 51.5968 178.349 51.8497C178.211 52.0974 178.142 52.4005 178.142 52.7588C178.142 53.1383 178.211 53.4546 178.349 53.7074C178.486 53.9552 178.674 54.1397 178.912 54.2609C179.148 54.3821 179.418 54.4427 179.719 54.4427C179.872 54.4427 180.012 54.4296 180.139 54.4032C180.267 54.3716 180.364 54.3399 180.433 54.3083V53.2174H179.418C179.392 53.1699 179.368 53.112 179.347 53.0434C179.326 52.9749 179.315 52.8985 179.315 52.8142C179.315 52.6771 179.347 52.5744 179.41 52.5059C179.479 52.4374 179.566 52.4031 179.672 52.4031H181.003C181.135 52.4031 181.238 52.44 181.312 52.5138C181.391 52.5876 181.432 52.6904 181.432 52.8221Z" fill="#4B371C"/>
<path d="M190.226 51.9601H191.256V55.1461C191.214 55.1566 191.148 55.1697 191.058 55.1856C190.968 55.2014 190.876 55.2092 190.78 55.2092C190.58 55.2092 190.437 55.1724 190.353 55.0986C190.268 55.0248 190.226 54.9009 190.226 54.727V51.9601ZM191.256 53.1617H190.226V50.3553C190.274 50.3448 190.342 50.3315 190.431 50.3158C190.522 50.2999 190.612 50.292 190.701 50.292C190.897 50.292 191.037 50.3263 191.121 50.3948C191.212 50.4633 191.256 50.5898 191.256 50.7743V53.1617Z" fill="#4B371C"/>
<path d="M199.786 51.9445H200.792V55.0987C200.75 55.1094 200.687 55.1251 200.602 55.1463C200.517 55.162 200.428 55.1699 200.333 55.1699C200.163 55.1699 200.028 55.1199 199.928 55.0197C199.834 54.9196 199.786 54.7852 199.786 54.6166V51.9445ZM200.792 53.5493H199.786V50.9088C199.786 50.7402 199.834 50.6057 199.928 50.5057C200.028 50.4055 200.163 50.3555 200.333 50.3555C200.428 50.3555 200.517 50.3633 200.602 50.3791C200.687 50.395 200.75 50.4108 200.792 50.4266V53.5493ZM200.333 53.1145V52.2923H202.726C202.753 52.3345 202.776 52.3899 202.797 52.4583C202.819 52.5268 202.829 52.6032 202.829 52.6876C202.829 52.8299 202.797 52.9379 202.734 53.0117C202.671 53.0802 202.581 53.1145 202.465 53.1145H200.333ZM200.333 55.1699V54.3398H202.987C203.02 54.382 203.046 54.44 203.067 54.5138C203.088 54.5823 203.098 54.6587 203.098 54.743C203.098 54.8854 203.067 54.9934 203.004 55.0671C202.939 55.1356 202.85 55.1699 202.734 55.1699H200.333ZM200.333 51.1777V50.3555H202.956C202.982 50.3976 203.006 50.4529 203.027 50.5214C203.054 50.59 203.067 50.6664 203.067 50.7507C203.067 50.893 203.033 51.0011 202.963 51.0749C202.9 51.1434 202.813 51.1777 202.703 51.1777H200.333Z" fill="#4B371C"/>
<path d="M213.377 54.4349C213.684 54.4349 213.905 54.3742 214.042 54.253C214.186 54.1318 214.256 53.9842 214.256 53.8103C214.256 53.6522 214.201 53.5231 214.09 53.4229C213.979 53.3227 213.813 53.2384 213.59 53.1699L213.084 53.0118C212.82 52.9275 212.587 52.8273 212.386 52.7114C212.185 52.5954 212.03 52.4505 211.919 52.2766C211.808 52.1027 211.753 51.8839 211.753 51.6204C211.753 51.1935 211.913 50.8562 212.235 50.6085C212.558 50.3556 212.999 50.229 213.559 50.229C213.855 50.229 214.119 50.258 214.352 50.316C214.583 50.374 214.766 50.4584 214.898 50.5689C215.03 50.6744 215.096 50.8009 215.096 50.9484C215.096 51.0486 215.07 51.1381 215.017 51.2173C214.969 51.2963 214.909 51.3621 214.834 51.4149C214.708 51.3252 214.539 51.2462 214.328 51.1778C214.122 51.1092 213.894 51.075 213.647 51.075C213.377 51.075 213.171 51.125 213.028 51.2252C212.885 51.3252 212.814 51.4571 212.814 51.6204C212.814 51.747 212.862 51.8523 212.957 51.9367C213.057 52.0157 213.213 52.0869 213.424 52.1501L213.868 52.2924C214.333 52.4295 214.69 52.6166 214.938 52.8537C215.192 53.0908 215.318 53.4124 215.318 53.8181C215.318 54.2504 215.152 54.6034 214.819 54.8775C214.491 55.1464 214.018 55.2807 213.4 55.2807C213.078 55.2807 212.79 55.2438 212.536 55.17C212.288 55.1015 212.093 55.0067 211.95 54.8855C211.808 54.7589 211.736 54.622 211.736 54.4744C211.736 54.3478 211.77 54.2425 211.84 54.1581C211.913 54.0738 211.998 54.0106 212.093 53.9683C212.225 54.0843 212.399 54.1923 212.615 54.2925C212.838 54.3873 213.091 54.4349 213.377 54.4349Z" fill="#4B371C"/>
<path d="M39.2786 46.0165C39.2786 42.2121 42.8695 39.1279 47.299 39.1279C47.3345 39.1279 47.3631 39.1526 47.3631 39.1831V63.1198C47.3631 63.88 47.3631 64.2603 47.1263 64.4965C46.8896 64.7327 46.5084 64.7327 45.7462 64.7327H40.8954C40.1333 64.7327 39.7522 64.7327 39.5153 64.4965C39.2786 64.2603 39.2786 63.88 39.2786 63.1198V46.0165Z" fill="#4B371C"/>
<path d="M43.3208 37.1128C45.5533 37.1128 47.3631 35.3076 47.3631 33.0806C47.3631 30.8537 45.5533 29.0483 43.3208 29.0483C41.0884 29.0483 39.2786 30.8537 39.2786 33.0806C39.2786 35.3076 41.0884 37.1128 43.3208 37.1128Z" fill="#4B371C"/>
<path d="M22.7132 29.8548V61.7095V63.9273C22.7132 64.3726 23.0751 64.7337 23.5216 64.7337H25.7449H31.0876C31.5342 64.7337 31.8961 64.3726 31.8961 63.9273V59.4918C31.8961 59.0464 31.5342 58.6854 31.0876 58.6854H29.585C29.1384 58.6854 28.7765 58.3243 28.7765 57.8789V29.8548C28.7765 29.4095 28.4146 29.0483 27.9681 29.0483H23.5216C23.0751 29.0483 22.7132 29.4095 22.7132 29.8548Z" fill="#B978B2"/>
<path d="M40.754 14.333C41.2004 14.333 41.5624 14.6941 41.5624 15.1395V19.5749C41.5624 20.0203 41.2004 20.3814 40.754 20.3814H29.585C29.1384 20.3814 28.7765 20.7424 28.7765 21.1878V24.2121C28.7765 24.6574 28.4146 25.0185 27.9681 25.0185H23.5216C23.0751 25.0185 22.7132 24.6574 22.7132 24.2121V17.3572V15.1395C22.7132 14.6941 23.0751 14.333 23.5216 14.333H25.7449H40.754Z" fill="#70CBCF"/>
<path d="M63.929 24.2121V17.3572V15.1395C63.929 14.6941 63.567 14.333 63.1205 14.333H60.8972H45.8882C45.4417 14.333 45.0797 14.6941 45.0797 15.1395V19.5749C45.0797 20.0203 45.4417 20.3814 45.8882 20.3814H57.0571C57.5036 20.3814 57.8655 20.7424 57.8655 21.1878V24.2121C57.8655 24.6574 58.2276 25.0185 58.6741 25.0185H63.1205C63.567 25.0185 63.929 24.6574 63.929 24.2121Z" fill="#E7E62A"/>
<path fill-rule="evenodd" clip-rule="evenodd" d="M54.7448 63.9273C54.7448 64.3726 55.1067 64.7337 55.5532 64.7337H60.896H63.1193C63.5658 64.7337 63.9278 64.3726 63.9278 63.9273V61.7095V29.8548C63.9278 29.4095 63.5658 29.0483 63.1193 29.0483H58.6729C58.2263 29.0483 57.8643 29.4095 57.8643 29.8548V57.8789C57.8643 58.3243 57.5024 58.6854 57.0559 58.6854H55.5532C55.1067 58.6854 54.7448 59.0464 54.7448 59.4918V63.9273Z" fill="#E46356"/>
</svg>
