<svg width="48" height="49" viewBox="0 0 48 49" fill="none" xmlns="http://www.w3.org/2000/svg">
<path d="M-0.000732422 14.4004C-0.000732422 6.66841 6.26728 0.400391 13.9993 0.400391H33.9993C41.7313 0.400391 47.9993 6.6684 47.9993 14.4004V34.4004C47.9993 42.1324 41.7313 48.4004 33.9993 48.4004H13.9993C6.26728 48.4004 -0.000732422 42.1324 -0.000732422 34.4004V14.4004Z" fill="#E7E62A"/>
<path d="M16.0006 27.0672L18.0006 23.2005C18.218 22.7687 18.5487 22.4041 18.9574 22.1458C19.366 21.8874 19.8372 21.7451 20.3206 21.7339H34.6672M34.6672 21.7339C35.0746 21.7331 35.4767 21.8258 35.8427 22.0046C36.2088 22.1835 36.5289 22.4438 36.7787 22.7657C37.0284 23.0875 37.2011 23.4623 37.2835 23.8613C37.3659 24.2602 37.3557 24.6727 37.2539 25.0672L35.2006 33.0672C35.052 33.6426 34.7155 34.1519 34.2445 34.5142C33.7734 34.8766 33.1948 35.0712 32.6006 35.0672H13.3339C12.6267 35.0672 11.9484 34.7862 11.4483 34.2861C10.9482 33.786 10.6672 33.1078 10.6672 32.4005V15.0672C10.6672 14.3599 10.9482 13.6817 11.4483 13.1816C11.9484 12.6815 12.6267 12.4005 13.3339 12.4005H18.5339C18.9799 12.3961 19.4198 12.5037 19.8135 12.7133C20.2072 12.923 20.542 13.228 20.7872 13.6005L21.8672 15.2005C22.11 15.5692 22.4406 15.8719 22.8292 16.0813C23.2179 16.2908 23.6524 16.4004 24.0939 16.4005H32.0006C32.7078 16.4005 33.3861 16.6815 33.8862 17.1816C34.3863 17.6817 34.6672 18.3599 34.6672 19.0672V21.7339Z" stroke="white" stroke-width="1.5" stroke-linecap="round" stroke-linejoin="round"/>
</svg>
